<svg xmlns="http://www.w3.org/2000/svg" xmlns:xlink="http://www.w3.org/1999/xlink" preserveAspectRatio="xMidYMid meet" version="1.0" viewBox="-1.9 -0.6 611.7 424.4" zoomAndPan="magnify" style="fill: rgb(0, 0, 0);" original_string_length="20584" width="257.5236092301334px" height="178.41504953198782px"><g id="__id62_ssn3zql6ro"><path d="M606.584,260.603c-3.561-2.676-7.133-5.316-11.465-6.684c-1.413-0.446-2.837-0.759-2.485-3.019 c0.873-5.608,1.355-11.277,2.19-16.892c1.58-10.621,3.634-21.183,4.028-31.947c0.155-4.226-1.695-7.26-5.802-8.835 c-3.715-1.425-7.406-2.841-11.3-3.779c-8.286-1.995-16.61-3.688-26.256-3.833c7.045-7.492,13.196-14.286,19.637-20.794 c4.106-4.149,8.645-7.874,12.038-12.69c2.105-2.988,1.763-5.273-1.796-6.968c-5.961-2.838-12.121-5.127-18.357-7.26 c-16.595-5.677-33.788-8.518-51.055-11.152c-10.444-1.594-20.773-3.825-31.358-4.581c-22.932-1.638-45.288,3.098-67.718,6.309 c-13.862,1.985-27.607,5.465-40.734,10.737c-3.917,1.573-6.811,1.576-9.339-2.732c-5.617-9.575-13.269-17.683-20.334-26.174 c-2.269-2.727-2.47-4.628-1.157-7.634c3.798-8.699,7.67-17.394,10.845-26.328c2.945-8.284,1.202-14.876-4.488-17.513 c-17.334-8.034-34.367-16.809-53.07-21.562c-7.282-1.851-12.983-0.425-17.276,5.804c-0.935,1.356-1.706,2.004-3.212,0.687 c-9.152-8.003-20.56-12.086-31.146-17.532c-8.017-4.124-15.766-8.846-24.29-11.98c-13.031-4.792-25.94-9.872-39.37-13.589 c-4.612-1.276-7.031-0.919-9.912,2.982c-18.705,25.319-37.993,50.198-57.181,75.153c-12.249,15.931-23.36,32.669-36.118,48.299 c-20.963,25.682-41.833,51.485-61.463,78.241c-3.291,4.485-5.181,9.018-3.771,14.53c1.351,5.28-0.176,9.611-3.969,13.369 c-3.294,3.263-6.073,6.964-8.153,11.105c-4.643,9.242-4.024,13.632,6.703,19.576c1.062,0.588,2.255,0.936,3.378,1.416 c9.44,4.029,19.818,5.884,28.833,10.515c11.243,5.775,22.711,10.739,34.61,14.77c15.975,5.412,30.771,13.709,46.95,18.655 c15.785,4.826,31.869,8.744,46.811,16.193c19.216,9.58,40.481,14.012,59.901,23.176c2.46,1.161,5.195,1.765,7.835,2.513 c14.699,4.167,29.726,7.432,44.021,12.691c13.681,5.033,27.573,9.252,41.543,13.146c19.591,5.46,39.484,9.744,58.68,16.703 c22.85,8.285,47.11,12.2,69.46,22.161c4.727,2.107,9.735,3.754,14.769,4.97c12.261,2.962,14.79,1.902,19.274-4.182 c5.279-7.162,10.611-14.297,16.212-21.208c9.68-11.945,20.332-23.06,29.976-35.052c10.4-12.932,20.485-26.12,32.071-38.091 c16.188-16.726,29.024-36.214,43.741-54.161C609.767,265.389,609.506,262.798,606.584,260.603z" style="fill: rgb(30, 63, 72);"/></g><g id="__id63_ssn3zql6ro"><path d="M318.163,77.478c-0.409,3.087-0.121,5.313,5.072,4.347c3.711-0.691,5.726,3.15,6.839,6.345 c1.132,3.249-0.794,5.257-3.857,6.147c-3.938,1.145-5.45,2.664-2.466,6.731c2.4,3.27,0.518,6.719-1.59,9.709 c-1.883,2.672-3.879,5.662-7.655,4.715c-3.886-0.974-5.163,0.774-6.218,4.008c-2.182,6.685-6.025,9.338-11.333,8.25 c-4.455-0.913-6.117-3.45-5.229-7.982c0.91-4.643,0.599-4.949-4.123-4.057c-4.615,0.872-7.76-1.09-9.454-5.898 c-1.337-3.797,0.08-7.786,4.535-9.117c5.829-1.741,4.15-4.035,1.74-7.389c-3.539-4.925-3.126-9.822,0.817-14.733 c4.073-5.073,6.938-5.279,11.737-0.895c1.107,1.011,2.009,3.002,3.475,2.688c1.938-0.415,0.881-2.62,1.181-4.016 c1.806-8.387,7.015-10.888,13.815-6.776C318.425,71.357,318.307,73.982,318.163,77.478z M294.098,100.744 c0.004,6.183,3.067,9.574,8.583,9.505c6.024-0.076,12.672-6.848,12.701-12.939c0.024-5.056-6.687-10.963-12.3-10.825 C298.474,86.599,294.093,93.551,294.098,100.744z M260.665,142.405c-9.105,11.699-10.698,30.331-3.394,42.403 C260.622,170.351,263.567,156.95,260.665,142.405z M280.069,201.327c12.495-6.928,17.865-13.631,20.476-25.855 C290.87,182.334,283.502,189.939,280.069,201.327z" style="fill: rgb(226, 139, 122);"/></g><g id="__id64_ssn3zql6ro"><path d="M352.291,70.001c0.002,2.813-0.723,5.463-1.845,8.01c-18.783,42.613-36.099,85.774-49.936,130.297 c-3.759,12.097-7.878,24.139-13.635,35.544c-2.153,4.265-4.532,5.573-9.305,4.4c-9.685-2.38-19.045-5.798-28.369-9.119 c-9.697-3.454-19.534-6.203-29.474-8.638c-4.487-1.1-6.139-2.937-5.033-7.603c2.087-8.804,4.375-17.477,8.188-25.76 c2.938-6.382,5.224-13.072,7.653-19.679c9.884-26.891,20.637-53.415,32.668-79.428c3.333-7.206,6.102-14.713,8.601-22.256 c3.288-9.924,8.202-19.118,12.23-28.704c2.825-6.723,6.3-7.98,13.181-6.045c18.069,5.083,34.607,13.886,51.758,21.197 C351.653,63.359,352.41,65.471,352.291,70.001z M334.428,89.789c-0.433-4.13-2.245-7.912-5.592-9.7 c-4.384-2.341-7.414-4.906-7.813-10.118c-0.131-1.711-1.871-2.718-3.337-3.606c-8.528-5.169-13.839-3.566-18.358,5.656 c-0.716,1.461-0.983,2.003-2.689,0.85c-2.078-1.404-4.382-2.742-7.258-1.695c-6.899,2.512-14.807,13.875-8.863,22.642 c1.844,2.719,1.083,3.454-1.241,5.021c-7.457,5.024-6.694,16.671,1.71,19.542c4.531,1.548,6.512,3.091,7.969,7.759 c1.058,3.388,2.24,5.742-0.019,8.864c-0.842,1.164-1.041,2.847-1.354,4.331c-1.724,8.171-4.9,15.757-9.142,22.916 c-1.963,3.312-3.271,6.9-4.664,10.468c-4.151,10.632-6.161,21.697-7.445,32.997c-0.9,7.927-4.459,15.21-6.737,22.809 c-0.397,1.323-1.296,2.802,0.535,3.469c1.694,0.617,2.432-0.829,2.87-2.22c2.472-7.851,6.141-15.343,7.201-23.617 c1.423-11.104,3.196-22.178,7.68-32.49c5.47-12.579,12.506-24.515,15.023-38.254c0.161-0.877,0.856-1.646,1.085-2.522 c0.376-1.439,1.372-1.385,2.497-1.328c7.468,0.38,12.178-2.385,14.881-9.219c0.783-1.98,1.372-2.874,3.722-2.942 c8.273-0.24,15.386-10.558,12.714-18.607c-0.747-2.249-0.338-2.78,1.555-3.516C332.73,95.965,334.112,93.146,334.428,89.789z M265.55,154.337c0.524-5.468-0.122-10.716-2.755-15.594c-0.631-1.17-1.062-2.694-2.822-2.596c-1.646,0.092-2.168,1.468-2.793,2.695 c-3.185,6.256-6.05,12.695-7.967,19.416c-2.786,9.769,0.106,18.956,4.232,27.789c0.689,1.476,1.92,2.97,3.933,2.604 c1.798-0.327,2.088-2.061,2.595-3.463C263.575,175.213,265.357,164.903,265.55,154.337z M276.679,207.134 c17.845-7.548,25.717-17.535,28.825-33.267c0.295-1.494,0.379-2.678-0.804-3.749c-1.446-1.31-2.591-0.161-3.706,0.505 c-8.472,5.062-15.344,11.803-20.277,20.332C277.898,195.828,276.266,201.165,276.679,207.134z M323.054,245.766 c13.018-2.717,25.559-7.17,38.373-10.635c3.496-0.945,7.375-2.076,9.623-5.077c8.548-11.414,17.095-22.843,24.506-35.061 c1.629-2.686,0.698-3.326-2.08-3.56c-4.995-0.42-9.689,0.96-14.447,1.95c-16.051,3.339-30.134,9.76-39.106,24.534 c-2.374,3.91-5.569,7.321-8.391,10.958c-4.107,5.294-8.832,10.162-11.834,17.103C321.252,245.888,322.178,245.949,323.054,245.766z M303.918,91.68c-3.502-0.129-5.957,3.455-5.929,9.005c0.016,3.052,1.19,5.36,4.787,5.354c3.802-0.007,7.937-4.452,7.993-8.593 C310.813,94.113,308.107,91.835,303.918,91.68z" style="fill: rgb(185, 187, 163);"/></g><g id="__id65_ssn3zql6ro"><path d="M15.087,235.065c0.1,1.463,0.291,2.197,0.175,2.879c-1.485,8.739,2.77,13.116,10.705,16.006 c28.295,10.305,56.532,20.787,84.592,31.711c26.521,10.325,53.121,20.541,78.605,33.301c11.111,5.563,23.077,8.917,34.366,14.105 c6.345,2.916,14.483,2.3,21.669,4.336c22.568,6.395,45.87,9.224,68.811,13.811c45.19,9.035,89.275,21.601,131.559,40.126 c6.848,3,13.058,7.333,20.492,9.174c3.339,0.827,5.822,0.869,8.238-1.791c9.709-10.692,18.943-21.785,28.283-32.797 c16.302-19.221,33.06-38.057,49.666-57.02c8.71-9.947,17.363-19.949,27.154-28.89c6.007-5.485,10.498-11.991,12.131-20.103 c0.555-2.759,1.818-2.616,3.718-1.569c0.268,0.148,0.532,0.305,0.808,0.439c9.226,4.491,9.201,4.747,2.839,12.521 c-11.485,14.034-21.336,29.394-33.844,42.586c-23.621,24.91-43.595,52.906-66.623,78.321c-5.948,6.565-10.866,14.079-16.101,21.27 c-2.991,4.108-7.039,5.665-13.078,3.712c-8.146-2.633-16.334-5.284-24.169-8.696c-16.528-7.199-34.46-9.756-51.244-15.872 c-31.277-11.397-64.177-17.164-95.541-27.961c-21.297-7.332-43.192-12.483-64.443-19.753c-18.207-6.228-36.361-12.806-53.974-20.516 c-17.874-7.823-36.1-14.338-54.826-19.628c-15.397-4.35-29.327-12.382-44.356-17.7c-12.687-4.489-25.402-8.91-37.091-15.925 c-4.34-2.605-9.771-3.433-14.746-4.93c-7.066-2.125-13.747-5.167-20.39-8.307c-3.532-1.67-5.005-4.02-3.445-8.132 C7.13,244.221,10.637,239.812,15.087,235.065z" style="fill: rgb(16, 101, 133);"/></g><g id="__id66_ssn3zql6ro"><path d="M208.994,225.486c-8.578-5.623-16.409-11.804-24.86-17.093C154.937,190.122,124.56,174.296,91.942,163 c-1.442-0.499-2.955-0.793-4.41-1.26c-1.45-0.466-3.246-1.488-3.984,0.506c-0.932,2.517,1.707,2.485,3.042,3.039 c11.022,4.574,22.346,8.502,33.092,13.642c27.701,13.25,54.939,27.389,79.695,45.806c8.017,5.964,16.046,11.913,24.135,17.779 c8.049,5.836,14.744,12.971,20.582,20.963c0.271,0.371,0.46,0.805,0.75,1.157c1.138,1.381,2.569,2.668,4.278,1.338 c1.541-1.2,0.567-2.736-0.319-4.079c-4.603-6.97-10.204-13.06-16.409-18.61c-1.909-1.708-3.945-3.273-5.705-5.342 c19.19,3.56,36.606,13.084,56.472,15.905c-18.475,23.482-37.11,46.466-55.682,68.826c-15.478-20.587-34.396-37.593-56.866-51.248 c-25.489-15.491-53.38-25.385-80.689-36.491c-22.753-9.254-46.596-15.827-70.551-23.785c3.657-4.741,7.436-9.325,10.875-14.151 c17.037-23.912,36.185-46.177,54.59-68.991c12.379-15.345,23.093-31.797,35.046-47.382c18.875-24.61,38.06-48.987,56.006-74.293 c1.712-2.414,2.999-2.705,5.806-1.965c13.472,3.551,26.37,8.672,39.349,13.614c7.346,2.798,14.076,6.794,21.015,10.353 c11.157,5.723,22.996,10.165,33.199,17.761c2.692,2.004,3.045,3.385,1.582,6.21c-4.193,8.1-7.936,16.419-10.587,25.294 c-24.466-19.649-52.061-32.007-80.572-42.571c-1.383-0.512-3.949-3.218-4.929-0.258c-0.858,2.591,2.383,3.001,4.264,3.807 c14.629,6.264,29.333,12.379,43.33,19.997c10.382,5.651,20.809,11.269,30.063,18.737c5.772,4.658,5.746,4.695,3.321,11.402 c-3.343,9.244-7.917,17.944-11.853,26.926c-1.069,2.44-1.785,2.86-3.973,0.932c-7.618-6.713-15.941-12.537-24.065-18.615 c-17.012-12.726-36.381-20.917-55.655-29.323c-1.936-0.844-3.961-1.485-5.625-2.994c-1.23-1.115-2.973-1.186-3.922,0.523 c-0.867,1.56,0.248,2.687,1.543,3.32c4.676,2.288,9.31,4.699,14.126,6.655c26.175,10.628,49.24,26.218,70.934,44.05 c2.274,1.869,3.206,3.536,1.879,6.578c-3.613,8.283-6.925,16.7-10.24,25.11c-1.005,2.551-1.799,2.579-4.126,1.021 c-23.205-15.543-45.754-32.132-70.653-45.007c-7.212-3.729-14.532-7.225-22.557-8.975c-1.642-0.358-3.312-0.783-3.835,1.094 c-0.552,1.983,1.292,2.431,2.808,2.855c10.723,2.999,20.419,8.249,29.998,13.743c20.939,12.009,40.352,26.36,60.593,39.439 c3.304,2.135,4.48,3.988,2.701,8.019c-2.961,6.712-5.239,13.735-7.594,20.699c-0.848,2.51-1.642,2.295-3.451,0.893 c-29.784-23.074-63.322-38.988-98.602-51.569c-3.208-1.144-6.466-1.895-9.894-1.753c-1.102,0.045-2.334,0.064-2.518,1.435 c-0.21,1.566,0.995,1.97,2.27,2.334c28.142,8.032,54.622,19.858,79.374,35.427c9.346,5.879,19.053,11.283,27.486,18.534 c1.157,0.995,2.999,1.558,1.779,3.973C213.718,203.818,211.234,214.413,208.994,225.486z M65.371,188.894 c-0.982-0.107-1.989,0.125-2.099,1.218c-0.149,1.474,0.844,2.062,2.24,2.362c4.483,0.96,9.012,1.8,13.395,3.114 c35.287,10.582,66.879,28.848,98.155,47.671c19.691,11.851,38.301,25.15,52.927,43.268c1.016,1.258,2.334,2.974,4.16,1.231 c1.73-1.651,0.192-3.155-0.836-4.392c-6.795-8.175-14.028-15.99-22.322-22.623c-14.786-11.824-31.42-20.838-47.423-30.851 c-25.156-15.739-51.751-27.888-79.816-37.163C77.744,190.743,71.621,189.62,65.371,188.894z M236.13,320.103 c9.195-12.308,19.341-23.853,28.905-35.869c24.402-30.656,47.926-61.971,71.418-93.316c10.407-13.885,20.802-27.779,31.146-41.711 c2.082-2.805,4.63-4.565,7.993-5.716c13.493-4.618,27.294-8.482,41.311-10.387c22.29-3.028,44.48-7.913,67.245-6.26 c10.434,0.758,20.62,2.979,30.908,4.638c16.945,2.733,33.895,5.379,50.181,11.056c4.771,1.663,9.455,3.576,14.229,5.229 c3.422,1.185,4.261,2.33,1.217,5.307c-6.477,6.332-13.112,12.491-19.437,19.005c-19.36,19.94-37.181,41.217-55.135,62.365 c-11.819,13.922-24.752,26.953-35.102,42.081c-7.107,10.387-13.665,21.14-21.664,30.918c-1.655,2.023-3.105,2.613-5.372,1.982 c-12.08-3.361-24.533-3.477-36.909-4.453c-10.411-0.821-20.826-2.196-31.247-1.998c-20.251,0.384-40.543-1.093-60.758,1.712 c-10.928,1.516-22.062,1.493-32.923,3.68c-15.332,3.086-30.102,8.235-45.099,12.549C236.734,320.645,236.432,320.374,236.13,320.103 z M319.531,250.735c1.543-0.116,2.478-0.103,3.38-0.267c13.716-2.494,26.942-6.859,40.284-10.744 c4.362-1.27,8.975-2.808,11.839-6.707c8.909-12.125,18.199-24.002,25.539-37.201c3.006-5.406,2.138-6.7-3.738-8.098 c-7.398-1.76-14.306,0.745-21.281,2.065c-12.783,2.421-24.896,6.291-32.834,17.968c-3.528,5.191-7.862,9.831-11.786,14.756 c-5.832,7.319-12.013,14.365-16.506,22.689c-1.628,3.016-3.073,5.138,2.158,4.869C317.742,250.007,318.929,250.588,319.531,250.735z M455.865,174.824c20.466,0.937,41.085,1.087,60.646,8.643c1.949,0.753,4.327,1.487,5.053-1.066 c0.662-2.325-1.941-2.632-3.578-3.312c-18.38-7.633-37.982-8.38-57.363-9.21c-16.824-0.721-33.739-0.43-50.595,1.255 c-10.695,1.069-21.425,1.738-31.78,4.76c-6.444,1.881-12.738,4.292-19.052,6.593c-1.039,0.379-2.552,1.168-1.979,2.649 c0.559,1.448,2.091,0.851,3.25,0.687c0.59-0.084,1.128-0.484,1.714-0.653c11.755-3.39,23.391-7.596,35.685-8.332 C417.162,175.683,436.419,172.858,455.865,174.824z M457.745,149.079c-10.422-0.85-19.355,2.708-28.632,3.539 c-17.557,1.572-34.735,5.367-52.026,8.498c-1.298,0.235-3.63,0.393-3.26,2.387c0.37,1.999,2.576,1.36,3.949,1.143 c14.952-2.362,29.793-5.472,44.902-6.769c9.626-0.827,19.037-3.863,28.608-4.01c14.825-0.228,29.668-2.231,44.552,0.599 c10.938,2.08,22.338,1.438,33.025,5.359c1.835,0.673,3.902,0.779,5.878,0.982c1.792,0.184,4.323,0.549,4.711-1.523 c0.384-2.048-1.916-2.746-3.816-3.103c-1.953-0.367-3.901-0.774-5.826-1.265c-19.423-4.952-39.22-6.661-59.19-6.69 C466.025,148.219,461.429,148.821,457.745,149.079z M404.868,258.074c13.44-0.143,25.538,2.325,36.905,7.223 c2.805,1.209,5.651,2.457,8.783,2.346c1.184-0.042,2.55-0.456,2.885-1.895c0.289-1.24-0.364-2.056-1.645-2.25 c-6.607-0.998-12.247-4.695-18.57-6.581c-21.593-6.441-43.718-3.563-65.472-2.952c-24.443,0.687-48.583,5.745-72.263,12.287 c-1.304,0.36-3.19,0.248-2.94,2.073c0.273,1.998,2.254,1.841,3.741,1.587c3.762-0.644,7.536-1.296,11.231-2.238 c19.06-4.855,38.486-7.436,58.039-8.876C379.001,257.809,392.528,259.091,404.868,258.074z M376.934,275.634 c-30.316-0.162-55.186,3.357-79.99,7.506c-5.721,0.957-11.439,1.938-17.134,3.034c-1.043,0.201-2.734,0.302-2.37,2.136 c0.354,1.78,1.636,1.805,3.196,1.561c6.649-1.036,13.307-2.015,19.977-2.909c14.565-1.953,29.088-4.532,43.72-5.582 c17.882-1.283,35.835-1.911,53.767,0.577c10.453,1.45,21.077,1.596,30.65,6.98c1.893,1.064,4.434,1.031,6.697,1.363 c1.415,0.208,3.016,0.037,3.262-1.697c0.225-1.593-1.137-2.803-2.478-2.775c-4.405,0.092-7.795-2.552-11.659-3.885 C407.455,276.034,389.471,277.219,376.934,275.634z M504.259,199.112c-0.178-1.232-0.929-1.926-2.017-2.309 c-2.439-0.86-4.832-1.901-7.329-2.533c-11.444-2.897-23.056-4.695-34.86-5.356c-14.914-0.835-29.734,0.245-44.514,2.005 c-1.228,0.146-4.11-0.295-3.738,2.204c0.281,1.889,2.54,1.212,3.989,1.155c8.744-0.344,17.498-0.563,26.223-1.194 c11.252-0.814,22.375,0.657,33.466,1.866c8.309,0.906,16.571,2.781,24.454,5.846C501.927,201.572,503.53,201.468,504.259,199.112z M421.643,209.002c-4.767,0-9.534-0.004-14.301,0.002c-1.403,0.002-3.082-0.015-3.092,1.844c-0.009,1.782,1.63,1.935,3.051,2.031 c2.453,0.165,4.904,0.463,7.358,0.483c15.988,0.127,31.888,1.236,47.665,3.935c6.481,1.109,12.982,2.094,19.245,4.197 c1.579,0.53,3.623,1.39,4.415-0.645c0.9-2.313-1.263-3.118-3.013-3.756c-1.718-0.626-3.454-1.255-5.233-1.653 C459.27,211.305,440.585,209.023,421.643,209.002z M409.021,227.706c-3.286,0-8.356,0.009-13.427-0.005 c-1.596-0.005-3.409,0.15-3.571,1.986c-0.2,2.261,1.862,1.995,3.338,2.031c5.836,0.14,11.682,0.489,17.507,0.28 c17.055-0.614,33.41,3.595,49.915,6.849c2.161,0.426,5.254,3.312,6.355-0.006c1.113-3.357-3.031-3.325-5.222-4.344 c-0.278-0.129-0.56-0.279-0.856-0.335C445.78,230.866,428.639,226.469,409.021,227.706z M246.471,328.783 c15.968-1.828,31.943-1.272,47.88-0.161c13.754,0.958,27.457,2.69,41.174,4.158c14.161,1.516,28.387,2.342,42.438,4.973 c21.793,4.079,43.632,7.888,64.282,16.384c3.253,1.338,5.648,0.435,7.624-2.205c7.479-9.99,16.471-18.667,25.09-27.571 c13.789-14.246,26.902-29.114,40.305-43.684c24.762-26.917,49.129-54.187,75.262-79.799c2.649-2.596,1.542-3.071-1.049-4.089 c-11.401-4.476-23.329-6.146-35.432-7.005c-1.265-0.09-2.371-0.057-3.315,1.057c-5.57,6.569-12.357,12.027-17.506,18.974 c-12.558,16.943-27.353,32.001-40.809,48.194c-8.455,10.175-16.943,20.184-24.117,31.315c-3.905,6.059-8.228,11.854-12.484,17.679 c-4.318,5.911-9.327,10.129-17.241,6.115c-0.794-0.403-1.773-0.463-2.676-0.627c-13.027-2.367-26.283-2.25-39.416-3.516 c-20.985-2.024-42.116-1.535-63.159-0.927c-14.237,0.411-28.45,2.33-42.626,3.983c-16.98,1.98-32.963,8.099-49.333,12.593 c-2.898,0.796-5.789,1.901-8.687,4.233C237.623,328.859,242.1,329.283,246.471,328.783z M24.454,248.732 c14.421,5.532,28.665,11.57,43.258,16.597c33.861,11.665,67.221,24.661,100.12,38.715c18.632,7.96,36.991,16.62,55.823,24.07 c-1.173-4.541-3.635-8.587-7.006-12.248c-7.924-8.605-16.187-16.861-25.16-24.357c-5.887-4.917-11.936-9.666-18.601-13.545 c-16.972-9.877-34.551-18.404-52.77-25.835c-21.954-8.954-43.617-18.555-66.436-25.251c-11.546-3.388-22.879-7.5-34.662-11.402 c0,2.431,0.025,4.415-0.008,6.397c-0.027,1.626,0.6,2.684,2.319,2.82c9.295,0.737,17.689,4.617,26.359,7.532 c19.556,6.575,39.044,13.391,58.077,21.324c11.123,4.636,22.029,10.167,33.256,14.242c15.669,5.686,29.482,14.172,43.398,22.8 c6.644,4.12,11.484,10.093,17.205,16.067c-3.14,0.34-4.494-1.274-5.897-2.54c-11.615-10.48-25.358-17.695-38.863-25.235 c-7.356-4.107-15.879-5.592-23.303-9.639c-11.041-6.019-22.952-10.087-34.548-14.738c-20.136-8.077-40.778-14.891-61.194-22.272 c-5.384-1.946-10.86-3.403-16.186-4.056c-2.336,5.809,0.724,8.106,5.305,9.79c4.163,1.531,8.218,3.203,12.707,3.683 c8.211,0.878,15.103,5.796,22.932,7.808c10.862,2.791,21.021,7.423,31.43,11.409c10.867,4.162,21.107,9.994,31.969,13.826 c13.468,4.752,26.366,10.627,39.455,16.165c5.28,2.234,10.187,5.033,14.62,8.606c3.088,2.489,6.115,5.137,7.81,8.945 c-7.619-4.719-14.833-9.856-23.078-13.299c-8.333-3.48-16.604-7.122-24.805-10.905c-7.642-3.525-16.005-4.844-23.592-8.789 c-16.568-8.615-34.131-14.961-51.697-21.301c-14.182-5.118-28.822-8.828-43.365-14.325 C18.512,244.235,20.245,247.117,24.454,248.732z M461.229,393.735c-0.134-3.34-1.91-6.425-4.664-7.221 c-14.012-4.048-26.834-11.01-40.462-15.964c-15.628-5.68-31.788-9.481-47.782-13.877c-1.124-0.309-2.452-0.675-2.002-2.439 c3.406-0.594,6.708-0.268,9.977,0.75c4.952,1.542,9.866,3.247,14.89,4.506c14.344,3.594,28.616,7.239,42.104,13.617 c6.572,3.108,13.287,6.174,20.494,7.763c0.146-0.157,0.295-0.312,0.447-0.464c-0.259-1.04-0.574-2.071-0.768-3.123 c-0.791-4.276-2.862-6.755-7.575-7.607c-6.747-1.221-13.321-3.392-19.975-5.132c-18.468-4.828-36.896-9.779-55.626-13.584 c-11.382-2.313-22.897-3.674-34.386-5.484c0.514-1.606,1.583-1.657,2.687-1.65c4.765,0.032,9.6-0.454,14.283,0.182 c19.697,2.676,38.982,7.36,58.165,12.506c12.895,3.459,25.858,6.661,39.249,10.095c-1.332-4.113-2.152-7.762-7.358-7.47 c-1.729,0.097-3.542-0.844-5.278-1.425c-10.584-3.54-20.888-7.905-32.013-9.777c-16.759-2.821-33.286-7.197-50.264-8.494 c-20.358-1.555-40.527-4.862-60.89-6.215c-15.372-1.022-30.769-1.569-46.203,0.162c5.251,1.5,10.514,2.933,15.858,3.934 c27.918,5.23,55.932,9.965,83.571,16.6c36.549,8.774,72.061,20.562,106.245,36.275c2.458,1.13,4.253,3.673,7.323,3.483 L461.229,393.735z M463.949,357.319c11.628-11.824,23.375-23.531,35.004-35.353c12.287-12.49,24.945-24.655,36.616-37.699 c15.174-16.959,30.54-33.766,46.783-49.641c9.064-8.859,10.894-19.021,11.433-30.945c-12.86,13.412-25.554,26.296-37.847,39.552 c-19.846,21.399-39.405,43.064-59.137,64.57c-6.532,7.119-12.642,14.582-19.609,21.366c-6.904,6.722-13.235,14.101-19.881,21.139 c-6.48,6.861-6.247,7.081-1.157,15.807C458.886,363.015,461.281,360.032,463.949,357.319z M298.317,233.47 c2.836-3.624,5.664-7.255,8.51-10.872c19.746-25.093,37.889-51.41,58.116-76.138c0.883-1.08,3.068-1.978,1.401-4.171 c-7.776-10.229-15.756-20.288-24.512-30.454c-3.953,8.874-7.638,17.389-11.556,25.794c-1.209,2.594-0.721,4.247,1.486,5.81 c3.932,2.786,7.095,6.342,9.719,10.355c0.838,1.281,2.759,2.799,0.706,4.324c-2.159,1.603-3.412-0.529-4.391-1.932 c-2.822-4.047-6.233-7.47-10.264-10.815c-3.535,10.148-6.715,20.065-10.489,29.75c-1.672,4.291-2.452,7.747,1.682,10.922 c1.051,0.807,2.028,2.249,0.825,3.602c-1.354,1.523-2.412,0.066-3.486-0.718c-0.94-0.686-1.357-2.113-3.129-2.057 c-5.09,15.291-10.198,30.637-15.306,45.983C297.86,233.058,298.089,233.263,298.317,233.47z M563.742,279.324 c-15.155,15.481-30.189,31.08-45.552,46.368c-17.403,17.316-32.478,36.877-50.317,53.847c-5.398,5.135-5.232,5.309-1.49,11.875 c3.106,5.451,3.567,5.354,7.735,0.403c12.565-14.926,25.085-29.896,37.942-44.569c22.075-25.194,43.162-51.287,67.522-74.422 c5.023-4.77,8.667-10.496,6.976-18.712C578.755,262.776,571.551,271.347,563.742,279.324z M463.952,377.663 c8.644-8.541,16.512-17.816,24.88-26.587c13.668-14.327,26.439-29.447,40.897-43.124c18.852-17.834,36.035-37.432,53.92-56.286 c4.805-5.065,6.465-10.817,5.28-18.269c-2.945,3.101-5.817,6.072-8.63,9.098c-18.008,19.369-35.505,39.216-54.144,57.994 c-11.267,11.351-22.538,22.715-33.609,34.239c-9.696,10.093-20.007,19.55-29.593,29.75c-6.628,7.052-7.041,6.664-3.166,15.666 c0.054,0.125,0.205,0.209,1.178,1.159C462.022,380.004,462.879,378.724,463.952,377.663z" style="fill: rgb(227, 216, 214);"/></g></svg>