<svg xmlns="http://www.w3.org/2000/svg" xmlns:xlink="http://www.w3.org/1999/xlink" preserveAspectRatio="xMidYMid meet" version="1.0" viewBox="-1.0 -1.5 543.5 341.7" zoomAndPan="magnify" style="fill: rgb(0, 0, 0);" original_string_length="15912" width="381.6488720104935px" height="240.09183584660138px"><g id="__id41_ssn3zql6ro"><path d="M541.121,109.629c0.023-17.538-4.241-28.462-13.899-36.818c-9.597-8.303-20.057-15.227-32.175-19.407 c-10.227-3.528-20.489-6.976-30.604-10.807c-29.843-11.301-58.522-25.551-89.251-34.65c-14.848-4.397-29.457-9.469-45.279-7.518 c-11.434,1.41-22.959,2.473-34.137,5.304c-25.89,6.557-52.468,8.594-78.747,12.609c-25.769,3.937-51.396,8.857-77.37,11.345 c-23.705,2.271-47.08,6.516-70.394,11.185c-6.343,1.271-12.204,3.863-17.551,7.423c-7.031,4.681-6.845,11.101,0.273,15.562 c1.145,0.718,1.645,1.687,2.146,2.874c7.827,18.587,5.45,36.019-5.84,52.46c-0.686,0.999-1.306,2.532-2.637,2.424 c-8.064-0.656-14.384,5.291-22.956,4.772c-13.853-0.838-18.53,10.49-12.714,21.019c5.364,9.711,5.813,20.343,1.392,30.853 c-0.908,2.159-1.688,4.156-4.689,4.284c-3.83,0.164-5.292,2.92-6.026,6.352c-1.663,7.772-0.222,14.987,4.58,21.162 c11.421,14.687,22.203,29.927,35.509,43.046c2.694,2.656,1.543,3.452-1.027,4.732c-6.35,3.161-12.597,6.528-18.892,9.801 c-1.911,0.993-4.072,1.917-3.856,4.523c0.234,2.825,2.571,3.612,4.884,4.116c5.371,1.17,10.718,2.587,16.155,3.274 c5.057,0.639,5.955,3.123,5.034,7.577c-1.146,5.544-2.996,10.985-3.017,16.719c-0.009,2.567-0.869,5.632,2.097,7.191 c2.813,1.478,5.115-0.413,7.312-1.888c6.478-4.351,12.826-8.857,20.002-12.122c3.153-1.435,4.984-0.985,7.34,1.36 c7.423,7.388,13.403,16.169,21.652,22.724c8.499,6.753,15.43,15.94,27.281,17.613c5.102,0.72,10.18,1.473,15.343,1.449 c34.419-0.159,68.791-0.081,103.217-2.464c35.537-2.46,71.269-1.661,106.91-3.313c24.246-1.124,48.556-1.155,72.841-2.259 c13.321-0.606,26.331-4.034,39.633-3.464c9.379,0.402,15.335-3.956,18.639-12.041c3.347-8.192,6.22-16.61,8.748-25.094 c2.045-6.861,1.28-13.986-2.095-20.205c-8.479-15.621-18.403-30.405-29.91-43.913c-11.19-13.136-21.592-26.747-30.917-41.25 c-2.62-4.076-1.543-4.972,2.649-6.046c15.444-3.957,31.292-6.319,46.204-12.41c16.862-6.887,34.145-12.233,48.373-24.916 C536.406,132.947,542.458,122.293,541.121,109.629z" style="fill: rgb(30, 63, 72);"/></g><g id="__id42_ssn3zql6ro"><path d="M95.719,278.019c-9.849,3.97-19.738,7.812-29.296,12.495c-6.52,3.194-12.719,6.854-19.579,12.023 c0.65-7.844,3.247-13.984,3.253-20.599c0.004-5.08-1.172-7.951-7.003-8.154c-4.5-0.156-8.955-1.623-14.23-2.665 c3.386-3.328,6.971-4.694,10.298-6.422c11.189-5.812,23.216-9.554,34.922-14.093c1.962-0.761,3.245-0.652,4.626,0.935 c6.512,7.478,11.824,15.928,18.805,23.034C99.891,276.99,97.149,277.443,95.719,278.019z M263.351,203.275 c-2.729-4.359,2.329-6.287,4.895-8.655c8.572-7.91,10.948-17.418,7.795-28.53c-2.858-10.071-1.776-11.706,8.551-14.213 c33.739-8.188,67.177-17.508,100.047-28.654c30.578-10.369,61.315-20.147,92.405-28.842c8.043-2.25,16.204-3.846,24.447-5.149 c8.512-1.346,10.732-0.198,13.67,7.777c1.184,3.215,1.609,6.533,1.469,9.445c0.063,16.252-10.149,28.967-25.526,32.41 c-43.617,9.766-86.77,21.281-129.56,34.196c-29.709,8.967-58.367,20.999-88.089,29.901 C270.142,203.952,265.963,207.447,263.351,203.275z M277.865,194.693c3.276-1.122,5.076-1.721,6.864-2.353 c29.07-10.264,57.967-21.05,87.248-30.671c38.773-12.74,78.489-22.116,118.262-31.172c12.072-2.749,20.82-16.688,18.004-28.776 c-0.838-3.597-2.056-5.403-6.48-4.584c-23.614,4.375-46.43,11.662-69.173,19.053c-38.782,12.603-77.496,25.386-117.12,35.16 c-9.63,2.375-19.313,4.537-28.958,6.85c-2.555,0.613-5.479,0.875-4.139,5.008C285.797,173.766,284.378,183.843,277.865,194.693z" style="fill: rgb(216, 167, 114);"/></g><g id="__id43_ssn3zql6ro"><path d="M55.988,121.91c1.641-2.627,2.065-7.818,7.761-4.499c13.093,7.629,27.467,12.697,41.686,17.304 c20.329,6.587,39.629,15.473,58.944,24.171c13.74,6.187,27.93,11.086,41.726,17.029c6.943,2.991,14.393,4.835,21.155,8.419 c1.578,0.836,4.067,1.184,5.01-0.156c1.247-1.772-1.015-3.193-2.226-4.233c-3.947-3.389-8.686-5.346-13.555-7.113 c-13.285-4.82-26.485-9.874-39.163-16.167c-11.927-5.92-24.472-10.371-36.712-15.544c-12.876-5.442-25.961-10.386-38.858-15.78 c-11.445-4.787-23.269-8.601-34.537-13.871c-3.373-1.578-4.568-2.656-3.374-6.476c3.043-9.733,2.789-9.67,11.834-5.137 c5.063,2.538,10.274,4.851,15.585,6.815c31.759,11.744,62.958,24.896,94.092,38.147c13.281,5.653,27.358,10.099,38.918,19.379 c0.812,0.652,1.87,1.003,2.822,1.477c1.701,0.846,3.503,1.368,4.682-0.615c1.12-1.882,0.111-3.546-1.472-4.55 c-5.981-3.794-11.556-8.243-18.164-11.034c-20.897-8.826-41.709-17.855-62.656-26.56c-20.941-8.703-42.004-17.11-63.014-25.646 c-1.15-0.467-2.339-0.856-3.449-1.404c-5.402-2.664-12.019-4.238-15.817-8.386c-3.664-4.001-1.478-11.19-3.301-16.99 c13.303,6.977,26.285,13.986,40.166,18.895c40.246,14.233,77.306,35.63,116.792,51.578c12.206,4.93,20.972,14.588,27.91,25.469 c4.459,6.994,2.458,14.677-1.924,21.086c-4.211,6.158-10.427,9.754-18.301,8.447c-4.354-0.722-8.727-1.79-12.858-3.327 c-45.674-16.993-92.477-31.253-134.877-56.178c-6.677-3.925-14.301-6.215-21.366-9.518C57.555,126.059,53.79,125.427,55.988,121.91z M105.697,283.78c-0.126-0.125-0.234-0.284-0.384-0.367c-3.119-1.724-5.338,0.702-7.739,1.852c-1.319,0.632-0.516,1.926,0.268,2.634 c6.708,6.055,13.449,12.073,20.205,18.073c1.281,1.137,2.06,0.456,2.897-0.792c5.769-8.597,4.197-24.162-3.142-31.441 c-2.133-2.115-4.254-4.325-5.944-6.791c-8.042-11.729-18.069-21.827-27.033-32.789c-11.766-14.39-25.236-27.336-37.484-41.376 c-8.373-9.599-16.235-19.668-25.606-29.424c-0.51,4.048-0.193,7.674-1.485,10.587c-3.335,7.52-0.698,12.646,3.671,19.199 c12.04,18.061,27.128,33.72,39.193,51.691c0.393,0.585,0.84,1.178,1.388,1.606c2.87,2.244,5.726,0.491,7.73-1.013 c2.016-1.513-0.737-2.932-1.655-4.181c-1.676-2.281-3.74-4.282-5.351-6.602c-0.955-1.376-0.871-3.133,0.624-4.313 c1.859-1.468,2.777,0.072,3.846,1.312c13.541,15.711,27.154,31.359,40.604,47.147c1.765,2.072,5.297,4.688,2.205,7.643 C109.513,289.294,107.615,285.691,105.697,283.78z M409.921,293.26c-2.482-0.018-4.964-0.005-7.446-0.005c0,0.033,0,0.066,0,0.1 c-1.241,0-2.481-0.011-3.722,0.002c-8.169,0.087-8.531,0.383-9.952,8.318c-0.187,1.045-0.185,2.124-0.387,3.165 c-2.429,12.564-3.193,14.53,13.154,13.735c2.647-0.129,7.217,0.588,6.955-3.744c-0.285-4.712-4.697-2.9-7.643-3.071 c-0.351-0.02-0.723,0.117-1.059,0.051c-2.03-0.4-5.319,1.357-5.675-2.039c-0.409-3.899,3.158-2.083,5.066-2.594 c0.505-0.136,1.099,0.011,1.578-0.169c2.017-0.759,5.519-0.214,5.369-3.173c-0.168-3.304-3.496-1.898-5.584-2.13 c-0.695-0.077-1.419,0.13-2.122,0.082c-1.466-0.1-3.612,0.575-3.398-2.02c0.198-2.399,2.171-1.77,3.705-1.702 c3.713,0.165,7.424,0.424,11.138,0.468c1.696,0.02,3.298-0.741,3.338-2.697C413.277,293.78,411.675,293.274,409.921,293.26z M268.291,294.355c-2.833-0.085-5.67-0.024-8.506-0.024c0-0.022,0-0.044,0-0.066c-1.418,0-2.837-0.037-4.254,0.007 c-3.396,0.106-7.383-1.027-8.143,4.283c-0.833,5.817-0.798,11.647-0.548,17.483c0.093,2.178,1.521,3.718,3.461,4.309 c5.038,1.535,10.128,1.398,15.13-0.314c1.418-0.485,2.643-1.395,2.486-3.04c-0.194-2.035-1.855-2.407-3.534-2.39 c-2.832,0.029-5.662,0.181-8.493,0.253c-2.832,0.072-3.646-1.51-3.441-4.088c0.226-2.834,2.104-2.35,3.855-2.008 c2.29,0.448,4.562,0.703,6.83-0.016c1.48-0.469,3.515-0.668,3.201-2.809c-0.24-1.637-1.977-1.813-3.402-1.864 c-2.302-0.083-4.609-0.029-6.911-0.104c-1.614-0.052-3.44-0.097-3.44-2.348c0-2.645,2.177-1.784,3.552-1.823 c4.068-0.116,8.145,0.052,12.211-0.105c1.834-0.071,3.726-0.94,3.615-3.08C271.856,294.635,269.897,294.403,268.291,294.355z M310.944,295.853c-1.709-0.838-3.135,0.054-4.185,1.372c-2.05,2.574-2.687,5.73-3.395,8.841c-0.264,1.157,0.1,2.837-1.409,3.127 c-1.329,0.255-2.012-1.228-2.828-2.113c-2.76-2.995-5.344-6.169-8.274-8.984c-2.203-2.117-5.02-2.585-6.678,0.568 c-2.396,4.555-3.562,9.592-4.537,14.28c0.039,1.605-0.102,2.994,1.367,3.51c1.685,0.592,2.703-0.465,3.339-1.837 c0.742-1.601,1.482-3.231,1.956-4.923c1.031-3.673,2.235-4.939,5.163-1.202c2.39,3.049,5.001,6.033,8.39,8.074 c4.452,2.681,7.379,1.56,8.847-3.364c1.312-4.401,1.742-9.039,3.681-13.285C313.132,298.271,312.618,296.673,310.944,295.853z M345.062,305.296c0.047,7.076-4.442,11.658-11.46,11.7c-6.93,0.041-12.208-4.099-12.326-9.669 c-0.157-7.459,4.176-11.897,11.676-11.957C340.992,295.306,345.018,298.605,345.062,305.296z M339.164,305.465 c-0.327-3.988-3.983-4.954-6.973-5.035c-3.368-0.091-5.569,2.363-5.347,5.969c0.249,4.053,3.748,4.085,6.505,4.874 C336.71,310.618,339.47,309.194,339.164,305.465z M179.944,314.775c-2.113,0.062-4.212,0.51-6.323,0.729 c-3.101,0.321-4.633-0.444-3.691-4.135c1.135-4.445,2.017-9.013,1.262-13.674c-0.245-1.511-0.969-2.842-2.579-2.96 c-1.717-0.125-2.53,1.195-2.616,2.74c-0.336,6.056-2.264,11.815-3.205,17.75c-0.789,4.978,0.874,6.696,6.094,6.885 c1.417,0.051,2.836,0.008,4.255,0.008c0.006,0.069,0.012,0.137,0.019,0.206c2.638-0.257,5.289-0.428,7.912-0.794 c2.516-0.351,5.392-0.873,4.892-4.269C185.433,313.659,182.273,314.706,179.944,314.775z M376.287,295.412 c-6.889-0.011-13.779,0.069-20.668,0.165c-1.503,0.021-2.88,0.56-3.089,2.278c-0.205,1.682,0.932,2.597,2.384,3.044 c1.339,0.412,2.73,0.924,4.098,0.923c3.599-0.003,5.386,1.144,4.149,5.078c-0.36,1.144-0.189,2.455-0.192,2.51 c-0.303,7.052,0.595,9.645,2.809,9.068c4.236-1.102,2.171-4.923,2.784-7.592c0.039-0.17,0.033-0.352,0.036-0.528 c0.082-5.161,0.808-9.561,7.855-8.41c2.023,0.33,3.973-0.865,3.916-3.314C380.312,296.189,378.381,295.415,376.287,295.412z M234.402,296.084c-1.883-1.403-3.36,0.374-4.348,1.786c-2.435,3.48-4.773,7.037-6.963,10.675c-2.109,3.503-3.957,2.947-5.679-0.164 c-1.539-2.78-2.847-5.687-4.344-8.491c-0.468-0.877-1.057-2.044-2.364-1.543c-1.212,0.464-1.083,1.685-1.067,3.036 c1.46,4.878,3.652,9.617,7.247,13.717c2.83,3.228,5.482,3.116,7.841-0.149c3.313-4.587,6.333-9.386,9.462-14.105 C235.213,299.298,236.153,297.389,234.402,296.084z M195.961,298.313c-1.95,0.291-2.37,1.831-2.36,3.556 c0.011,2.111,0.003,4.221,0.003,6.966c0.157,2.509-0.418,5.706,0.74,8.777c0.454,1.205,0.951,2.275,2.483,2.311 c1.554,0.036,2.288-1.031,2.519-2.242c1.058-5.562,1.036-11.165,0.006-16.721C199.049,299.338,197.872,298.029,195.961,298.313z" style="fill: rgb(227, 216, 214);"/></g><g id="__id44_ssn3zql6ro"><path d="M16.306,143.376c-3.35-4.545-2.313-7.841,3.118-9.455c5.142-1.528,8.894-1.647,12.037,4.496 c3.884,7.59,11.751,11.734,19.199,15.491c16.776,8.462,33.471,17.081,51.594,22.6c15.524,4.727,29.358,13.392,43.788,20.571 c26.831,13.348,55.542,21.405,83.698,31.041c4.747,1.624,9.638,1.487,14.667,0.235c15.823-3.938,31.854-7.076,47.583-11.343 c22.904-6.213,45.524-13.478,68.437-19.654c18.294-4.931,36.854-8.869,55.273-13.345c2.534-0.616,3.87,0.106,5.103,2.345 c9.207,16.726,21.524,31.158,33.65,45.766c9.525,11.475,17.336,24.225,25.728,36.535c1.929,2.83,1.725,4.516-2.324,4.3 c-3.186-0.17-6.388-0.034-9.583-0.034c-52.614,3.59-105.321,2.978-158.003,3.765c-52.178,0.78-104.351,0.315-156.525,0.436 c-6.909,0.016-13.819-0.807-20.729,0.049c-2.498,0.309-4.16-0.617-5.857-2.644c-21.384-25.541-42.822-51.017-65.298-75.642 C45.739,181.226,30.529,162.673,16.306,143.376z M480.379,279.357c2.99-0.222,4.345,0.848,4.066,3.872 c-1.108,11.992-5.147,23.145-10.49,33.752c-2.164,4.295-6.894,5.692-11.792,6.107c-37.817,3.207-75.754,3.235-113.631,4.756 c-38.467,1.545-77.019,0.061-115.376,3.102c-32.291,2.56-64.546,0.932-96.81,1.56c-9.471,0.184-17.669-2.773-25.32-9.053 c-11.296-9.271-21.286-19.742-31.611-30.81c0.838-0.468,1.603-0.891,2.364-1.322c4.821-2.736,8.622-3.135,13.396,1.48 c5.585,5.398,11.386,10.605,16.89,16.14c7.816,7.86,11.521,6.962,15.748-3.109c2.381-5.673,3.598-11.566,3.088-17.651 c-0.385-4.599,1.425-5.672,5.733-5.544c39.912,1.179,79.838,1.491,119.766,1.388c31.412-0.081,62.831,0.154,94.234-0.439 c36.705-0.693,73.434-0.781,110.097-3.087C467.279,280.089,473.838,279.843,480.379,279.357z M185.963,317.26 c-0.531-3.601-3.69-2.554-6.019-2.486c-2.113,0.062-4.212,0.51-6.323,0.729c-3.101,0.321-4.633-0.444-3.691-4.135 c1.135-4.445,2.017-9.013,1.262-13.674c-0.245-1.511-0.969-2.842-2.579-2.96c-1.717-0.125-2.53,1.195-2.616,2.74 c-0.336,6.056-2.264,11.815-3.205,17.75c-0.789,4.978,0.874,6.696,6.094,6.885c1.417,0.051,2.836,0.008,4.255,0.008 c0.006,0.069,0.012,0.137,0.019,0.206c2.638-0.257,5.289-0.428,7.912-0.794C183.587,321.179,186.464,320.656,185.963,317.26z M199.35,300.96c-0.3-1.622-1.478-2.931-3.389-2.647c-1.95,0.291-2.37,1.831-2.36,3.556c0.011,2.111,0.003,4.221,0.003,6.966 c0.157,2.509-0.418,5.706,0.74,8.777c0.454,1.205,0.951,2.275,2.483,2.311c1.554,0.036,2.288-1.031,2.519-2.242 C200.401,312.119,200.379,306.516,199.35,300.96z M234.402,296.084c-1.883-1.403-3.36,0.374-4.348,1.786 c-2.435,3.48-4.773,7.037-6.963,10.675c-2.109,3.503-3.957,2.947-5.679-0.164c-1.539-2.78-2.847-5.687-4.344-8.491 c-0.468-0.877-1.057-2.044-2.364-1.543c-1.212,0.464-1.083,1.685-1.067,3.036c1.46,4.878,3.652,9.617,7.247,13.717 c2.83,3.228,5.482,3.116,7.841-0.149c3.313-4.587,6.333-9.386,9.462-14.105C235.213,299.298,236.153,297.389,234.402,296.084z M271.959,296.61c-0.103-1.975-2.062-2.206-3.668-2.255c-2.833-0.085-5.67-0.024-8.506-0.024c0-0.022,0-0.044,0-0.066 c-1.418,0-2.837-0.037-4.254,0.007c-3.396,0.106-7.383-1.027-8.143,4.283c-0.833,5.817-0.798,11.647-0.548,17.483 c0.093,2.178,1.521,3.718,3.461,4.309c5.038,1.535,10.128,1.398,15.13-0.314c1.418-0.485,2.643-1.395,2.486-3.04 c-0.194-2.035-1.855-2.407-3.534-2.39c-2.832,0.029-5.662,0.181-8.493,0.253c-2.832,0.072-3.646-1.51-3.441-4.088 c0.226-2.834,2.104-2.35,3.855-2.008c2.29,0.448,4.562,0.703,6.83-0.016c1.48-0.469,3.515-0.668,3.201-2.809 c-0.24-1.637-1.977-1.813-3.402-1.864c-2.302-0.083-4.609-0.029-6.911-0.104c-1.614-0.052-3.44-0.097-3.44-2.348 c0-2.645,2.177-1.784,3.552-1.823c4.068-0.116,8.145,0.052,12.211-0.105C270.178,299.619,272.07,298.75,271.959,296.61z M310.944,295.853c-1.709-0.838-3.135,0.054-4.185,1.372c-2.05,2.574-2.687,5.73-3.395,8.841c-0.264,1.157,0.1,2.837-1.409,3.127 c-1.329,0.255-2.012-1.228-2.828-2.113c-2.76-2.995-5.344-6.169-8.274-8.984c-2.203-2.117-5.02-2.585-6.678,0.568 c-2.396,4.555-3.562,9.592-4.537,14.28c0.039,1.605-0.102,2.994,1.367,3.51c1.685,0.592,2.703-0.465,3.339-1.837 c0.742-1.601,1.482-3.231,1.956-4.923c1.031-3.673,2.235-4.939,5.163-1.202c2.39,3.049,5.001,6.033,8.39,8.074 c4.452,2.681,7.379,1.56,8.847-3.364c1.312-4.401,1.742-9.039,3.681-13.285C313.132,298.271,312.618,296.673,310.944,295.853z M345.062,305.296c-0.044-6.691-4.07-9.99-12.111-9.926c-7.499,0.06-11.832,4.497-11.676,11.957 c0.117,5.57,5.395,9.711,12.326,9.669C340.62,316.954,345.109,312.372,345.062,305.296z M380.369,298.634 c-0.056-2.445-1.988-3.219-4.082-3.222c-6.889-0.011-13.779,0.069-20.668,0.165c-1.503,0.021-2.88,0.56-3.089,2.278 c-0.205,1.682,0.932,2.597,2.384,3.044c1.339,0.412,2.73,0.924,4.098,0.923c3.599-0.003,5.386,1.144,4.149,5.078 c-0.36,1.144-0.189,2.455-0.192,2.51c-0.303,7.052,0.595,9.645,2.809,9.068c4.236-1.102,2.171-4.923,2.784-7.592 c0.039-0.17,0.033-0.352,0.036-0.528c0.082-5.161,0.808-9.561,7.855-8.41C378.475,302.278,380.425,301.083,380.369,298.634z M413.235,295.837c0.042-2.057-1.561-2.563-3.315-2.576c-2.482-0.018-4.964-0.005-7.446-0.005c0,0.033,0,0.066,0,0.1 c-1.241,0-2.481-0.011-3.722,0.002c-8.169,0.087-8.531,0.383-9.952,8.318c-0.187,1.045-0.185,2.124-0.387,3.165 c-2.429,12.564-3.193,14.53,13.154,13.735c2.647-0.129,7.217,0.588,6.955-3.744c-0.285-4.712-4.697-2.9-7.643-3.071 c-0.351-0.02-0.723,0.117-1.059,0.051c-2.03-0.4-5.319,1.357-5.675-2.039c-0.409-3.899,3.158-2.083,5.066-2.594 c0.505-0.136,1.099,0.011,1.578-0.169c2.017-0.759,5.519-0.214,5.369-3.173c-0.168-3.304-3.496-1.898-5.584-2.13 c-0.695-0.077-1.419,0.13-2.122,0.082c-1.466-0.1-3.612,0.575-3.398-2.02c0.198-2.399,2.171-1.77,3.705-1.702 c3.713,0.165,7.424,0.424,11.138,0.468C411.594,298.554,413.196,297.793,413.235,295.837z M45.897,250.199 c2.899,3.141,7.701,3.689,11.458,0.109c3.112-2.966-1.225-4.766-2.56-6.618c-7.875-10.923-17.283-20.61-25.503-31.295 c-5.183-6.738-9.196-14.356-15.273-20.397c-1.344-1.336-2.52-3.069-5.104-3.051c-1.923,0.04-2.063,1.898-2.306,3.375 c-0.937,5.696,1.459,10.529,4.765,14.75C22.73,221.567,33.375,236.634,45.897,250.199z M332.191,300.431 c-3.368-0.091-5.569,2.363-5.347,5.969c0.249,4.053,3.748,4.085,6.505,4.874c3.361-0.656,6.12-2.08,5.815-5.809 C338.837,301.477,335.182,300.511,332.191,300.431z" style="fill: rgb(16, 101, 133);"/></g></svg>