<svg xmlns="http://www.w3.org/2000/svg" xmlns:xlink="http://www.w3.org/1999/xlink" preserveAspectRatio="xMidYMid meet" version="1.0" viewBox="-1.4 -1.6 536.0 534.5" zoomAndPan="magnify" style="fill: rgb(0, 0, 0);" original_string_length="23395" width="384.6994535519126px" height="384px"><g id="__id5_ssn3zql6ro"><path d="M530.694,85.416c-0.617,13.322-2.365,26.597-2.822,39.919c-1.319,38.475-3.431,76.906-6.338,115.283 c-1.876,24.762-0.867,49.502-0.867,74.25c0,28.856-1.702,57.614-4.038,86.347c-0.802,9.859-0.849,19.719-0.756,29.591 c0.108,11.45-0.739,13.129-11.521,15.679c-15.053,3.561-29.417,9.62-41.538,18.398c-11.671,8.452-23.4,7.546-35.743,6.951 c-23.567-1.137-47.078-3.392-70.71-3.28c-9.405,0.044-9.091-0.007-12.504,9.05c-5.237,13.898-10.995,27.585-18.016,40.721 c-5.141,9.62-13.478,13.394-23.779,13.842c-17.592,0.764-35.026-1.27-52.513-2.79c-10-0.869-20.027-1.855-30.032-2.367 c-18.94-0.968-37.711-3.488-56.53-5.397c-25.712-2.609-51.353-6.144-76.89-10.144c-11.324-1.774-23.102-2.331-33.622-7.988 c-4.789-2.575-9.636-5.058-13.385-9.027c-12.096-12.806-23.007-26.555-33.413-40.792c-7.07-9.673-5.979-19.958-4.851-30.424 c4.407-40.904,14.358-80.708,24.152-120.549c5.105-20.767,11.286-41.224,16.952-61.829c10.921-39.714,19.313-80.042,29.18-120.011 c2.57-10.41,3.631-21.234,8.772-31.069c4.671-8.936,10.991-14.084,21.362-13.82c7.932,0.202,15.873,0.04,23.81,0.04 c0-0.075,0-0.151,0-0.226c8.518,0,17.038-0.11,25.553,0.059c3.013,0.06,4.161-0.823,3.954-3.931 c-0.604-9.071-0.73-18.181-1.558-27.228c-1.247-13.635,2.691-20.89,15.609-24.318c17.72-4.701,34.449-12.23,52.276-16.779 c20.19-5.152,40.243-3.452,60.443-2.682c11.207,0.427,22.4,1.692,33.602,1.729c29.632,0.099,59.124,2.599,88.656,4.467 c20.662,1.307,41.338,2.648,62.044,2.466c12.839-0.113,25.434,1.328,38.056,3.34c7.93,1.264,14.377,5.345,20.789,9.619 c5.035,3.356,6.915,8.503,7.746,14.285C534.568,53.104,531.445,69.225,530.694,85.416z" style="fill: rgb(30, 63, 72);"/></g><g id="__id6_ssn3zql6ro"><path d="M350.744,106.819c-2.583,23.415-5.404,46.805-8.387,70.173c-1.491,11.676-3.64,23.267-5.284,34.925 c-0.41,2.908-0.875,4.244-4.244,2.992c-4.081-1.517-8.349-0.898-12.907,0.371c-2.441-29.403-5.487-33.84-23.926-35.235 c5.621-11.861,4.746-24.601-7.253-25.464c11.995-22.627,9.47-44.267-4.784-65.96c19.006,1.185,37.914-2.016,56.434,3.398 C350.069,94.849,351.842,96.859,350.744,106.819z M72.607,180.457c5.329,0.639,7.887,0.742,6.785-6.724 c-2.782-18.847,2.013-23.819,21.69-24.933c-0.728-2.406-1.444-4.396-1.93-6.442c-3.136-13.191,2.052-20.534,14.909-21.18 c3.286-0.165,8.613-3.835,9.755-6.76c1.178-3.015,3.328-5.259,6.004-6.857c4.856-2.898,10.132-4.547,15.843-4.889 c9.81-0.588,17.897,3.142,25.164,10.538c0.008-11.449,2.725-21.012,10.549-28.928c-4.845-1.549-9.129-1.294-13.345-1.306 c-23.024-0.066-46.052,0.185-69.071-0.163c-6.235-0.094-9.582,2.509-12.273,7.592c-4.042,7.636-5.322,15.971-7.241,24.226 c-5.098,21.926-10.68,43.739-16.11,65.76C66.485,180.392,69.586,180.095,72.607,180.457z" style="fill: rgb(16, 101, 135);"/></g><g id="__id7_ssn3zql6ro"><path d="M465.014,68.949c-1.959,28.749-1.423,57.599-2.937,86.354c-1.058,20.095-2.032,40.154-2.332,60.284 c-0.203,13.65-2.53,27.266-3.836,40.904c-0.294,3.073-0.428,6.175-0.407,9.262c0.138,20.328-0.684,40.617-2.026,60.899 c-0.897,13.55,0.661,27.071,1.278,40.587c0.795,17.413,1.174,34.774-0.065,52.184c-0.617,8.673-0.383,17.41-0.431,26.119 c-0.015,2.733-0.311,5.373-1.033,8.011c-2.729,9.961-5.176,11.995-15.432,11.602c-28.027-1.073-56.024-3.024-84.089-2.937 c-4.354,0.013-5.406-1.092-4.564-5.71c1.838-10.07,4.793-19.805,7.448-29.643c4.919-18.225,8.424-36.738,11.328-55.391 c3.967-25.484,10.383-50.496,15.12-75.832c6.155-32.916,11.408-65.99,18.604-98.726c3.713-16.891,5.783-34.154,8.303-51.291 c0.952-6.47-0.219-12.686-4.8-17.857c-4.293-4.846-8.27-5.116-11.794,0.12c-2.544,3.779-5.19,4.182-9.245,3.307 c-11.036-2.382-17.704-9.832-22.664-19.124c-2.499-4.68-4.329-9.563-5.071-15.15c-0.734-5.525-5.297-9.618-11.031-11.403 c-11.55-3.597-23.385-5.175-35.467-4.425c-7.56,0.469-15.084-0.062-22.626-0.229c-3.189-0.071-3.907-1.33-3.746-4.191 c0.553-9.841-0.174-19.72,1.047-29.557c0.319-2.572,0.948-2.992,3.474-2.834c1.252,0.079,2.507,0.121,3.762,0.148 c6.756,0.552,12.484,1.365,12.484,1.365c17.779,0,35.586-0.63,53.331,0.151c25.299,1.114,50.558,3.184,75.821,5.026 c5.955,0.434,11.952,0.303,17.865,1.682C461.227,54.975,465.72,58.592,465.014,68.949z M314.378,323.326 c-5.937,24.98-11.84,49.969-17.571,74.998c-0.74,3.23-2.05,3.545-4.946,2.972c-6.976-1.38-13.997-2.638-21.057-3.453 c-4.918-0.568-2.967-4.014-3.368-6.519c-0.46-2.871,0.595-3.863,3.725-4.146c10.071-0.909,15.092-9.859,10.92-18.9 c-1.062-2.3-3.217-2.591-5.401-2.487c-2.507,0.12-5.006,0.411-7.599,0.635c-5.376-0.667-10.682,0.952-16.094,0.976 c-3.968,0.018-8.017-0.172-8.839,5.148c-0.79,5.112-0.562,9.815,5.637,11.447c2.911,0.767,3.607,2.384,3.602,5.384 c-0.008,4.9-1.472,6.871-6.778,7.627c-13.532,1.926-27.055,5.154-40.649,4.944c-13.999-0.216-28.079-2.328-41.906-4.817 c-17.986-3.237-35.676-8.121-53.658-11.388c-9.05-1.644-18.463-1.326-27.716-1.813c-9.65-0.508-19.302-1.147-28.96-1.276 c-5.243-0.07-6.684-2.274-6.048-7.104c0.779-5.913,2.6-11.678,2.345-17.745c-0.302-7.18-1.347-8.081-8.335-9.06 c-5.591-0.784-11.165-1.052-16.762-0.872c-3.239,0.105-4.608-0.63-3.702-4.197c3.835-15.109,7.556-30.249,11.242-45.396 c0.981-4.031,3.646-6.763,6.712-9.136c14.21-11.002,28.29-22.18,43.867-31.288c2.644-1.546,4.555-1.818,7.346-0.296 c6.724,3.668,12.321,8.639,17.751,13.907c8.889,8.624,17.851,17.173,26.786,25.75c3.386,3.25,7.108,6.044,2.298,11.397 c-2.569,2.859,0.383,6.638,6.333,7.72c7.977,1.45,15.701,3.807,23.54,5.756c13.635,3.39,27.335,6.519,40.96,9.944 c3.318,0.834,6.63,1.138,8.179-2.129c5.262-11.097,14.203-19.15,22.195-28.02c2.791-3.098,5.086-8.997,7.863-9.156 c3.47-0.199,5.211,5.95,8.278,8.857c7.039,6.672,13.296,14.052,19.415,21.555c2.243,2.751,4.259,3.369,8.326,2.257 c9.621-2.628,19.656-3.748,29.532-5.432C314.697,319.488,314.968,320.84,314.378,323.326z M103.674,305.581 c0.042-3.894-1.569-5.634-5.524-5.577c-7.728,0.112-15.474,0.312-23.183-0.085c-5.08-0.262-7.087,2.127-7.359,6.571 c-0.542,8.857-1.014,17.723-1.262,26.592c-0.159,5.696,2.466,8.43,8.271,8.814c3.848,0.254,7.727,0.048,11.592,0.048 c0,0.02,0,0.039,0,0.059c3.092,0,6.216-0.282,9.27,0.06c5.901,0.661,8.122-2.256,8.137-7.645 C103.641,324.805,103.571,315.192,103.674,305.581z M170.08,339.711c-2.888-0.999-5.81-1.919-8.638-3.068 c-3.268-1.328-5.242,0.455-5.468,3.107c-0.635,7.477-1.022,15.011-0.837,22.506c0.111,4.478,11.808,10.253,15.77,8.216 c1.222-0.629,2.085-1.624,2.271-3.142c0.799-6.488,1.657-12.969,2.494-19.453C176.513,343.265,173.963,341.053,170.08,339.711z M208.291,350.118c-3.832-1.504-7.887-3.953-11.968-2.438c-4.569,1.696-3.333,6.347-3.402,10.105 c-0.028,1.542-0.005,3.086,0.002,4.628c0.006,2.121-0.005,4.243,0.008,6.364c0.053,8.307,4.202,11.731,12.41,10.415 c2.24-0.359,3.548-1.462,3.791-3.634c0.706-6.301,1.53-12.602,1.861-18.926C211.115,354.318,211.139,351.236,208.291,350.118z M261.458,336.792c0.02-10.387-1.814-11.863-11.925-9.515c-2.432,0.565-4.806,1.593-7.258,1.801 c-2.985,0.253-3.915,1.695-4.141,4.424c-0.602,7.293-1.391,14.57-2.094,21.854c-0.278,2.878,0.29,5.489,3.031,6.974 c6.002,3.251,19.443-2.726,20.654-9.492C260.669,347.564,261.808,342.238,261.458,336.792z M525.211,36.175 c-0.64-3.2-0.773-6.814-4.064-8.544c-6.29-3.306-12.325-7.283-19.619-8.256c-11.684-1.559-23.326-3.082-35.195-3.001 c-13.92,0.095-27.863-0.426-41.765-1.226c-27.604-1.588-55.199-3.382-82.769-5.474c-6.922-0.525-12.238,1.377-17.102,7.106 c2.321,0,4.166-0.092,6,0.015c14.864,0.866,29.78,1.251,44.578,2.772c28.992,2.981,58.108,4.019,87.149,6.196 c11.56,0.866,23.119,1.492,34.546,3.496c14.227,2.495,18.078,6.909,18.904,21.413c0.143,2.51,0.049,5.032,0.129,7.547 c0.619,19.39-1.976,38.622-2.953,57.932c-0.781,15.435-0.722,30.961-3.233,46.264c-2.546,15.522-3.252,31.249-2.61,46.798 c0.624,15.123-1.048,30.122-0.416,45.208c0.485,11.575,0.348,23.274-0.766,34.797c-2.826,29.248-4.815,58.529-5.26,87.901 c-0.299,19.739-0.176,39.485-0.114,59.228c0.005,1.462-2.072,4.167,1.567,4.364c2.874,0.155,5.647-0.522,6.312-3.757 c0.498-2.424,0.241-5.008,0.284-7.521c0.156-9.092-0.232-18.23,0.541-27.269c2.457-28.722,4.41-57.461,4.217-86.299 c-0.194-29.013-0.917-58.07,1.356-86.992c2-25.455,3.133-50.935,4.351-76.415c1.338-28.004,2.826-55.98,5.453-83.906 C525.739,57.836,527.376,46.998,525.211,36.175z M25.979,364.014c-4.918-0.246-5.333,2.56-5.106,6.211 c-0.199,3.056-0.136,6.506,4.182,5.453c3.419-0.833,8.951,1.276,9.624-4.613C35.261,365.973,32.535,364.342,25.979,364.014z" style="fill: rgb(217, 182, 177);"/></g><g id="__id8_ssn3zql6ro"><path d="M93.182,251.355c11.653,8.754,21.829,19.097,32.067,29.373c4.65,4.667,9.392,9.202,14.487,13.385 c3.062,2.514,5.518,3.285,8.955,0.109c6.812-6.294,14.464-11.703,21.069-18.19c5.717-5.615,12.054-7.167,19.513-5.895 c2.846,0.485,5.66,1.174,8.476,1.822c14.267,3.287,28.123,8.596,42.726,10.037c6.825,0.674,10.649,4.001,14.577,8.798 c7.465,9.116,15.423,17.827,23.105,26.767c1.568,1.825,3.237,2.399,5.608,1.95c9.644-1.825,19.287-3.703,28.993-5.131 c2.936-0.432,3.868-1.645,4.333-4.219c4.907-27.159,12.592-53.749,16.623-81.09c0.398-2.702,2.65-5.739-0.547-7.898 c-3.25-2.195-7.097-1.725-10.591-0.555c-2.943,0.985-5.256,3.178-7.391,5.472c-1.168,1.255-2.229,2.72-4.033,3.182 c-1.115,0.286-2.461,0.796-3.202-0.319c-0.411-0.619-0.234-1.865,0.072-2.681c0.947-2.521,2.279-4.907,3.11-7.459 c2.574-7.905,3.233-15.879-0.149-23.739c-3.386-7.868-9.098-10.502-17.357-8.081c-2.207,0.647-4.318,1.616-6.485,2.404 c-1.501,0.546-3.204,0.928-4.302-0.438c-1.19-1.481-0.001-3.073,0.841-4.234c2.037-2.81,4.419-5.367,6.525-8.131 c2.132-2.798,3.777-5.827,3.61-9.542c-0.254-5.628-2.16-6.981-7.679-6.052c-3.186,0.536-7.314,3.958-9.396,0.822 c-2.311-3.48,2.246-6.502,4.407-8.902c13.058-14.496,9.373-43.996,0.94-56.333c-2.659-3.889-5.446-8.55-10.824-8.828 c-24.723-1.277-49.379-3.761-74.177-3.808c-7.254-0.014-11.908,3.034-15.891,8.619c-5.541,7.771-5.75,16.532-5.779,25.481 c-0.008,2.462,1.496,6.027-2.102,7.036c-3.396,0.952-4.46-2.445-5.7-4.707c-3.052-5.565-7.596-9.14-13.603-10.979 c-13.941-4.268-24.577,2.418-26.04,16.375c-0.542,5.171-2.786,6.4-7.266,3.048c-5.421-4.056-10.477-2.216-14.997,0.576 c-4.364,2.696-1.9,7.298-1.091,11.122c0.474,2.244,1.425,4.383,2.033,6.604c0.685,2.499,2.961,5.109,0.791,7.6 c-2.134,2.45-4.673,0.145-6.959-0.38c-10.257-2.355-16.545,2.553-16.596,12.988c-0.028,5.728,1.414,11.032,4.036,16.096 c1.007,1.945,1.574,4.264-0.384,5.875c-1.636,1.346-3.314,0.001-4.721-1.001c-4.17-2.972-8.898-3.161-13.795-3.321 c-4.899-0.16-7.376,1.726-8.38,6.529c-2.042,9.772-4.148,19.546-6.719,29.188c-5.587,20.957-11.483,41.831-17.252,62.739 c14.054-12.402,29.353-22.421,44.945-32.092C85.815,248.743,89.136,248.315,93.182,251.355z M231.362,162.583 c0.292-1.695,1.635-2.179,3.034-1.992c9.736,1.302,19.464,2.657,29.179,4.109c1.289,0.193,2.873,0.955,2.874,2.467 c0.002,2.036-1.852,2.075-3.396,2.3c-3.267,0.477-6.566,0.883-9.766-0.109c-4.235-1.314-5.392,0.482-5.63,4.465 c-0.309,5.178-1.043,10.352-1.942,15.466c-0.458,2.606,0.066,6.921-3.933,6.571c-4.24-0.371-1.972-4.6-2.771-7.347 c0.673-4.594,1.091-9.426,2.153-14.113c0.985-4.348,0.266-7.093-4.621-7.688c-1.134-0.138-2.288-0.435-3.335-0.885 C231.857,165.246,231.097,164.128,231.362,162.583z M224.702,240.674c1.423-7.962,2.28-16.121,6.786-23.152 c3.384-5.28,8.575-6.158,14.288-5.283c5.899,0.904,9.906,4.148,11.603,9.94c1.197,4.084-0.89,6.704-4.313,8.419 c-1.861,0.933-3.905,1.502-6.241,2.375c2.718,3.357,5.298,6.409,7.718,9.583c1.353,1.775,2.316,4.001,0.099,5.646 c-2.347,1.742-3.85-0.085-5.111-1.982c-3.785-5.695-8.114-10.741-14.434-13.92c-2.476-1.245-3.3-1.219-3.748,1.603 c-0.421,2.653-1.099,5.286-1.911,7.849c-0.413,1.304-1.562,2.427-3.078,2.136C224.723,243.573,224.448,242.094,224.702,240.674z M190.951,185.683c3.056-1.904,4.909-4.86,7.581-7.028c2.462-1.997,2.741-3.98-0.022-5.982c-0.46-0.333-0.83-0.816-1.177-1.278 c-1.756-2.33-5.47-4.63-2.137-7.753c3.402-3.188,4.601,1.7,5.932,3.095c3.643,3.819,6.562,4.114,9.927,0.064 c0.488-0.587,1.084-1.212,1.764-1.485c2.212-0.889,3.136-6.053,6.246-2.986c3.336,3.289-0.956,5.464-2.808,7.479 c-5.763,6.273-5.88,6.19,1.027,11.787c1.959,1.587,4.017,3.058,4.5,5.844c-0.844,2.884-2.956,2.972-4.948,1.693 c-2.911-1.869-5.85-3.886-8.202-6.383c-2.42-2.568-3.859-2.178-5.87,0.271c-2.327,2.835-4.844,5.543-7.507,8.063 c-1.728,1.635-4.015,4.242-6.328,1.469C186.787,189.986,188.759,187.048,190.951,185.683z M204.018,211.815 c9.704,1.041,16.193,7.649,15.692,15.296c-0.377,9.252-8.767,19.696-15.719,19.566c-11.412-0.213-18.423-6.318-18.101-15.764 C186.274,219.632,194.348,210.778,204.018,211.815z M155.887,181.207c2.085-5.572,4.554-11.056,5.483-17.024 c0.483-3.098,2.889-4.273,5.511-3.964c5.149,0.608,10.263,1.617,15.333,2.729c1.576,0.346,3.722,1.222,3.282,3.381 c-0.465,2.283-2.659,2.679-4.654,2.364c-3.61-0.568-7.165-1.484-10.775-2.049c-2.365-0.37-5.031-1.277-5.274,2.926 c-0.248,4.3,2.906,2.494,4.732,3.017c0.903,0.259,1.92,0.123,2.885,0.165c0-0.065,0-0.13,0.001-0.195 c1.348,0,2.719-0.156,4.035,0.047c1.119,0.173,2.261,0.688,2.418,2.101c0.151,1.356-0.652,2.148-1.758,2.691 c-3.635,1.786-7.428,1.978-11.276,0.918c-1.961-0.54-3.597-1.251-4.397,1.702c-0.851,3.138,1.066,3.787,3.208,4.119 c3.239,0.502,6.528,0.668,9.792,1.015c1.81,0.192,3.626,0.597,3.545,2.931c-0.085,2.431-2.026,2.722-3.783,2.439 c-5.114-0.823-10.481-0.01-15.352-2.442C155.861,186.59,154.514,184.876,155.887,181.207z M156.638,208.426 c7.545-2.907,14.75-2.042,20.899,3.735c0.7,0.657,1.534,1.317,1.907,2.154c3.584,8.037-0.964,14.031-5.334,19.894 c-5.752,7.719-10.703,9.204-18.922,6.184c-6.11-2.245-9.481-7.504-9.245-16.341C145.932,217.89,148.829,211.435,156.638,208.426z M116.089,181.214c1.761-6.1,3.942-12.077,5.842-18.139c0.423-1.351,0.706-2.767,2.218-3.052c1.896-0.358,2.749,1.286,3.454,2.575 c2.689,4.913,5.171,9.94,7.864,14.85c0.685,1.249,1.13,3.301,3.047,2.982c1.33-0.221,1.792-1.858,2.268-3.114 c1.435-3.787,2.963-7.545,4.23-11.388c0.572-1.735,0.92-3.709,3.13-3.43c2.821,0.355,2.195,2.833,1.978,4.623 c-0.886,7.306-4.118,13.72-8.569,19.382c-2.961,3.766-5.931,1.612-7.934-1.451c-2.833-4.332-5.344-8.875-8.757-14.613 c-1.518,4.941-2.685,8.589-3.751,12.267c-0.616,2.125-1.17,4.577-4.068,3.572C114.43,185.371,115.633,182.793,116.089,181.214z M107.91,227.393c1.189-7.798,2.315-15.62,3.959-23.328c0.921-4.318,4.624-0.679,6.368-1.617c3.945,0.091,7.322,0.382,10.677,1.645 c7.293,2.747,10.38,7.796,8.849,15.25c-2.764,13.455-12.402,19.015-25.359,14.574C109.358,232.874,107.39,230.801,107.91,227.393z M286.039,495.434c5.971-0.387,8.379,6.172,14.124,5.8c-6.989,3.532-14.214,2.427-21.207,1.876 c-20.379-1.605-40.746-3.444-61.073-5.613c-29.612-3.16-59.385-3.731-89.044-5.977c-17.471-1.323-34.965-2.827-52.319-5.516 c-4.013-0.622-6.997-2.86-10.282-4.844c-10.724-6.478-18.597-16-28.568-25.513c40.688,4.623,80.168,4.092,119.417,7.823 c18.448,1.754,37.118,1.136,55.618,2.858c20.103,1.871,40.166,1.692,60.195-0.718c2.356-0.283,2.683,0.954,3.061,2.366 c0.928,3.462,1.679,6.971,2.451,10.249c-74.026-3.08-147.521-11.619-222.282-14.707c1.698,4.401,4.764,4.63,7.163,4.86 c14.788,1.416,29.587,2.968,44.42,3.611c17.586,0.762,35.048,2.688,52.542,4.356c10.023,0.955,20.092,0.096,30.133,1.318 c14.172,1.725,28.441,2.636,42.641,4.161c9.088,0.976,18.175,0.423,27.261,0.634c5.016,0.117,10.014,0.564,15.004,0.904 c5.798,0.395,7.939,3.624,10.1,8.534c-13.008-0.923-25.524-1.673-38.014-2.734c-14.804-1.258-29.562-3.179-44.384-4.076 c-12.931-0.783-25.699-2.79-38.545-4.157c-7.722-0.822-15.44-1.031-23.145-1.237c-21.462-0.572-42.778-3.226-64.213-4.026 c-2.426-0.09-6.574-1.418-6.759,2.034c-0.122,2.28,4.099,2.334,6.738,2.562c27.729,2.406,55.67,2.019,83.29,4.99 c23.372,2.514,46.76,5.079,70.154,7.426C248.95,494.53,267.453,496.637,286.039,495.434z M461.598,49.417 c-5.416-3.374-11.658-4.381-17.725-4.663c-30.311-1.409-60.557-3.836-90.874-5.223c-32.581-1.49-65.226-1.335-97.754-4.948 c-15.864-1.762-32.024-1.581-48.015-2.907c-2.065-0.171-4.275,0.414-6.263-1.007c-0.172-1.372,1.112-1.358,1.775-1.558 c18.974-5.719,37.641-11.681,58.225-9.254c25.707,3.03,51.701,2.819,77.572,3.996c25.277,1.151,50.508,3.307,75.76,5.016 c20.406,1.381,40.822,2.63,61.214,4.191c8.005,0.613,16.091,1.065,24.535,3.501c-12.031,4.443-24.787,5.228-34.907,13.143 C463.651,50.869,462.783,50.155,461.598,49.417z M473.625,218.461c-1.633,26.982-5.921,53.894-4.117,80.981 c3.038,45.633-2.011,91.219-0.117,136.825c0.12,2.898,0.012,5.806,0.043,8.708c0.095,8.883,0.101,8.883-8.926,11.794 c2.372-38.391,2.836-76.737,0.352-115.195c-1.267-19.615,0.414-39.432,0.985-59.151c0.424-14.663-0.27-29.378,1.783-43.974 c3.694-26.26,3.182-52.803,5.261-79.181c1.441-18.277,1.117-36.691,1.657-55.041c0.336-11.401,0.78-22.8,1.247-34.197 c0.136-3.324,0.315-6.933-1.355-9.627c-4.011-6.471,0.525-7.79,4.963-9.416c1.24-0.454,2.543-0.736,4.422-1.268 c-0.02,13.321,0.508,26.205-0.499,39.09c-0.15,1.925-0.589,3.847-0.549,5.764c0.698,33.894-2.62,67.578-5.214,101.301 C472.984,203.395,474.084,210.883,473.625,218.461z M509.699,63.057c-1.695,29.718-3.58,59.448-5.92,89.095 c-2.177,27.578-2.207,55.173-3.819,82.73c-0.586,10.028-0.387,20.112-0.3,30.168c0.241,28.042-2.266,55.93-4.594,83.824 c-2.162,25.897-0.906,51.831-1.228,77.748c-0.038,3.096-0.342,6.234,0.05,9.28c0.797,6.2-2.16,8.364-7.934,8.097 c-1.228-5.63,0.567-11.111,0.953-16.641c3.225-46.157,3.101-92.345,2.588-138.585c-0.229-20.621-0.3-41.414,2.084-61.983 c2.988-25.783,3.18-51.624,3.445-77.516c0.164-15.979,3.885-31.755,3.96-47.835c0.024-5.22-0.152-10.425-0.206-15.637 c-0.132-12.755-0.032-25.518-0.493-38.26c-0.137-3.796,2.281-3.738,4.23-3.755c2.215-0.02,5.377-2.422,6.59,1.984 C510.689,51.525,510.027,57.302,509.699,63.057z M483.662,314.905c0.98,21.867-0.041,43.693-0.335,65.528 c-0.275,20.47-1.557,40.925-2.341,61.389c-0.136,3.559-0.935,6.49-5.479,7.46c0-15.8-0.354-31.276,0.077-46.73 c0.782-28.043,0.859-56.083,0.788-84.13c-0.029-11.402-3.272-22.563-2.33-34.027c1.834-22.313,3.717-44.623,5.375-66.949 c0.428-5.767-0.065-11.597,0.143-17.388c0.899-25.095,4.716-50.046,4.496-75.169c-0.212-24.156,3.233-48.275,0.67-72.417 c-0.546-5.146,2.809-5.02,5.924-5.659c4.328-0.888,3.093,2.668,2.998,4.393c-1.312,23.934,2.278,48.168-1.54,71.769 c-4.125,25.494-1.711,50.905-3.153,76.299c-0.763,13.439-1.915,26.877-3.144,40.302C483.52,264.607,482.535,289.772,483.662,314.905 z M354.607,219.305c4.86-29.032,10.855-57.92,12.628-87.405c0.019-0.322,0.288-0.628,0.583-1.234 c2.152,1.237,4.231,2.54,6.408,3.651c1.849,0.943,2.057,2.05,1.763,4.155c-3,21.514-7.626,42.739-11.226,64.136 c-3.723,22.13-8.673,44.02-11.873,66.267c-2.064,14.351-6.65,28.37-9.911,42.562c-5.37,23.374-8.67,47.236-14.364,70.52 c-5.547,22.684-10.422,45.572-18.055,67.77c-3.483,10.13-6.858,20.352-10.092,30.594c-0.578,1.83-1.098,3.726-2.011,5.39 c-0.996,1.815-1.883,5.198-4.462,3.783c-2.29-1.257-5.479-3.293-3.829-7.371c2.809-6.939,5.076-14.068,7.439-21.175 c8.548-25.708,15.1-51.945,21.787-78.16c3.354-13.148,8.055-26.035,10.358-39.349c3.21-18.553,8.457-36.615,11.809-55.112 C345.735,265.287,350.743,242.393,354.607,219.305z M360.872,141.5c-2.209,26.326-7.614,52.232-11.283,78.375 c-3.07,21.875-7.818,43.482-12.556,65.075c-5.678,25.877-10.145,52.037-16.436,77.756c-6.15,25.14-13.823,49.912-21.06,74.778 c-3.059,10.51-6.685,20.855-10.113,31.256c-0.88,2.672-1.573,5.486-3.913,7.84c-1.842-3.533-2.531-7.048-3.38-10.517 c-0.233-0.951-0.736-2.002,0.23-2.629c8.277-5.37,8.659-14.764,10.947-22.798c11.798-41.436,21.541-83.396,30.263-125.58 c7.74-37.432,16.688-74.642,22.243-112.491c3.421-23.306,6.691-46.652,8.666-70.149c0.43-5.114,1.151-10.204,1.759-15.493 C366.012,123.927,361.561,133.291,360.872,141.5z M387.29,140.022c-2.791,15.049-5.86,28.593-7.712,42.302 c-2.604,19.268-8.465,37.807-11.644,56.955c-4.598,27.693-9.434,55.402-15.731,82.744c-6.731,29.225-12.8,58.587-19.26,87.864 c-5.689,25.782-11.605,51.429-21.312,76.051c-0.846,2.146-1.815,4.266-2.957,6.267c-2.052,3.597-5.045,3.527-8.434,1.981 c-1.488-0.679-1.576-1.354-0.665-2.563c6.263-8.308,8.657-18.355,11.895-27.899c8.326-24.542,14.179-49.763,19.798-75.061 c5.283-23.781,10.489-47.562,15.012-71.502c1.703-9.015,5.245-17.685,6.926-26.702c4.188-22.46,7.435-45.096,11.755-67.529 c2.716-14.104,4.834-28.317,8.64-42.264c2.917-10.688,3.544-22,5.2-33.033c0.343-2.284,0.681-4.57,1.115-6.838 c0.329-1.72-1.072-4.686,3.002-3.749C385.514,137.644,388.192,137.561,387.29,140.022z M234.294,226.418 c1.815-8.047,8.06-11.116,14.258-7.045c1.453,0.955,2.97,2.316,2.76,4.112c-0.241,2.051-2.428,2.011-4.02,2.478 C242.996,227.225,238.667,227.083,234.294,226.418z M151.911,227.863c-1.17-9.089,4.093-15.832,13.008-15.896 c7.458-0.054,11.853,6.816,8.334,13.324c-1.45,2.682-3.509,5.038-5.333,7.513c-2.182,2.962-4.998,4.158-8.598,2.859 C155.566,234.306,152.524,232.627,151.911,227.863z M191.462,231.147c0.065-7.052,5.751-14.458,10.999-14.326 c4.938,0.125,11.894,6.072,11.991,10.252c0.127,5.493-6.643,14.109-11.027,14.035C196.427,240.989,191.41,236.812,191.462,231.147z M113.713,223.668c1.249-3.974,1.189-8.388,1.49-12.622c0.207-2.91,1.368-4.436,4.358-3.648c4.184,1.103,9.396,0.867,11.465,5.528 c1.977,4.453-0.371,8.563-2.729,12.48c-2.403,3.99-6.417,2.791-8.595,3.317C114.512,229.296,112.05,228.961,113.713,223.668z" style="fill: rgb(229, 218, 216);"/></g><g id="__id9_ssn3zql6ro"><path d="M159.475,44.121c-1.225-10.833,1.528-15.191,11.951-17.704c15.983-3.853,30.928-10.707,46.755-15.087 c24.001-6.642,48.028-5.194,72.263-3.204c8.476,0.696,17.019,0.561,25.528,0.894c2.607,0.102,5.333-0.419,8.341,1.252 c-6.488,2.599-11.823,5.756-19.125,5.671c-19.561-0.227-38.977-3.638-58.53-2.609c-17.662,0.93-34.422,6.226-50.949,12.16 c-2.857,1.026-6.322,2.422-5.879,6.208c0.4,3.421,3.996,4.051,6.695,4.645c10.967,2.412,22.215,2.929,33.348,3.431 c13.917,0.628,27.79,1.601,41.665,2.721c4.277,0.345,7.199,0.703,6.464,6.858c-1.048,8.789-0.582,17.783-0.39,26.682 c0.08,3.721-1.077,4.551-4.653,4.237c-35.686-3.131-71.477-4.034-107.273-4.572c-4.358-0.065-5.575-1.114-5.43-5.498 C160.544,61.519,160.459,52.825,159.475,44.121z M175.254,279.081c-8.608,7.47-17.298,14.85-25.754,22.487 c-2.311,2.087-5.966,4.027-5.197,7.786c0.871,4.255,5.241,2.343,7.91,3.044c18.211,4.784,36.333,9.962,54.888,13.381 c3.239,0.597,5.203,0.592,6.9-2.778c3.773-7.491,9.251-13.702,15.553-19.268c4.611-4.072,8.627-8.745,11.873-14.838 c-16.85-2.313-32.192-7.702-47.986-11.169C187.35,276.389,180.967,274.123,175.254,279.081z M91.895,322.157 c-6.778,0.69-5.417-1.98-6.019,10.53c-0.328,6.818,4.362,3.966,7.333,4.488c7.232,1.269,5.675-3.973,5.831-9.01 C100.385,323.092,97.592,321.578,91.895,322.157z M93.783,317.774c6.167,0.45,4.667-3.325,5.165-6.784 c1.08-7.511-4.034-5.762-8.216-6.261c-5.282-0.63-4.97,2.4-4.386,6.313C84.106,317.914,88.709,317.404,93.783,317.774z M72.233,332.499c-1.365,3.929,1.612,4.542,4.896,4.773c6.986,0.491,3.228-4.813,4.506-7.56c-1.446-2.545,2.718-7.654-4.357-7.578 C68.18,322.233,73.465,328.954,72.233,332.499z M77.409,317.752c3.12-0.293,6.085-0.842,4.762-4.291 c-1.139-2.969,2.313-8.693-4.935-8.776c-6.106-0.07-3.315,4.107-4.015,6.495C73.531,314.191,71.397,318.318,77.409,317.752z M255.312,350.189c0.841-4.517,1.066-9.168,1.272-13.773c0.089-1.996,1.094-5.469-2.818-4.755 c-3.788,0.692-9.841-1.046-10.585,4.178c-1.015,7.128-2.409,14.464-1.033,22.324C247.212,356.284,253.935,357.593,255.312,350.189z M160.48,347.072c-0.278,4.037,0.178,8.131-0.192,12.153c-0.48,5.22,3.738,4.893,6.493,5.386c3.119,0.558,2.457-2.784,2.611-4.486 c0.365-4.023,0.433-8.071,1.61-12.46c-0.868-4.698-5.551-4.754-8.766-5.319C159.029,341.783,160.596,345.379,160.48,347.072z M198.038,370.176c0.03,3.2,2.398,3.758,4.66,4.022c2.698,0.314,2.325-2.315,2.528-3.729c0.575-4.006,0.495-8.107,1.091-12.109 c0.736-4.949-2.842-5.4-5.97-5.797c-4.312-0.547-2.115,3.056-2.544,4.871c-0.303,1.283-0.059,2.695-0.059,4.049 c-0.042,0.002-0.084,0.004-0.126,0.006C197.766,364.385,198.011,367.28,198.038,370.176z" style="fill: rgb(218, 169, 114);"/></g></svg>