<svg xmlns="http://www.w3.org/2000/svg" xmlns:xlink="http://www.w3.org/1999/xlink" preserveAspectRatio="xMidYMid meet" version="1.0" viewBox="-0.3 -0.8 603.9 538.3" zoomAndPan="magnify" style="fill: rgb(0, 0, 0);" original_string_length="16838" width="272.998833982846px" height="243.16783556750192px"><g id="__id15_ssn3zql6ro"><path d="M596.833,326.673c-9.836,9.672-20.947,17.868-31.779,26.29c-15.997,12.437-30.936,25.964-45.861,39.619 c-24.971,22.845-48.515,47.232-74.443,69.025c-19.068,16.026-37.417,32.863-56.204,49.204c-6.12,5.323-11.918,11.015-17.865,16.537 c-0.504,0.468-1.014,0.931-1.529,1.387c-7.443,6.59-15.088,8.766-25.195,4.824c-30.353-11.837-60.133-25.038-90.349-37.177 c-47.431-19.055-94.427-39.189-142.358-57.012c-10.77-4.005-21.383-8.729-31.135-15.019c-4.478-2.888-6.101-7.684-7.527-12.412 c-1.983-6.573-3.515-13.281-5.429-19.876C53.213,344.016,39.944,295.776,27.8,247.251c-9.202-36.769-17.174-73.846-25.611-110.805 c-1.437-6.293-2.481-12.679-2.115-19.193c0.305-5.431,2.15-9.555,7.706-11.929c15.92-6.803,32.278-12.324,48.679-17.801 c14.708-4.912,29.585-9.323,43.852-15.578c12.694-5.565,25.646-10.589,38.678-15.318c9.847-3.573,19.221-8.183,28.657-12.571 c13.131-6.106,26.746-10.797,40.256-15.845c23.039-8.607,45.85-17.838,69.24-25.489c2.739-0.896,5.506-1.738,8.306-2.412 c4.705-1.133,7.99,0.872,9.355,5.575c0.344,1.185,0.704,2.393,0.815,3.613c0.226,2.496,1.493,2.497,3.381,1.714 c3.809-1.579,7.634-3.125,11.493-4.577c5.524-2.078,7.478-1.351,10.656,3.517c5.236,8.021,8.525,16.933,11.672,25.874 c1.099,3.123,2.233,3.704,5.256,2.319c11.249-5.153,22.605-10.073,33.926-15.072c4.166-1.839,8.254-3.435,13.101-2.559 c3.717,0.672,5.76,2.528,7.326,5.757c4.17,8.601,5.2,17.939,6.39,27.177c2.103,16.327-0.173,32.636-0.678,49.508 c3.819-1.677,7.447-3.261,11.068-4.862c4.684-2.071,9.585-3.367,14.627-4.187c7.307-1.189,9.858,0.873,9.619,8.448 c-0.129,4.095-0.749,8.219-1.587,12.239c-6.999,33.569-20.871,63.887-42.999,90.26c-5.659,6.745-11.249,13.55-17.005,20.211 c-5.674,6.567-12.48,11.966-19.883,18.559c9.534-3.039,18.138-4.888,26.788-6.582c25.253-4.945,50.628-3.841,76.012-1.682 c18.234,1.551,36.293,4.678,54.081,8.735c25.952,5.919,50.763,15.277,74.057,28.363c1.079,0.606,2.166,1.208,3.194,1.894 c9.351,6.245,8.957,6.772,6.457,15.878c-0.327,1.192-0.525,2.427-0.931,3.59c-2.478,7.092-2.72,12.824,4.877,17.928 C603.561,316.681,602.973,320.636,596.833,326.673z" style="fill: rgb(30, 63, 72);"/></g><g id="__id16_ssn3zql6ro"><path d="M591.929,323.726c-10.169,9.698-21.458,18.083-32.342,26.914c-17.729,14.385-35.482,28.754-51.994,44.499 c-34.162,32.575-69.237,64.122-104.815,95.132c-12.651,11.026-25.08,22.318-36.641,34.516c-0.473,0.499-0.989,0.957-1.464,1.455 c-4.568,4.782-9.624,6.029-15.979,3.293c-15.903-6.846-32.337-12.39-48.169-19.438c-22.736-10.122-45.925-19.154-68.94-28.606 c-28.229-11.594-56.338-23.491-84.863-34.336c-19.008-7.227-38.107-14.184-56.854-22.1c-6.546-2.764-10.601-6.817-12.237-13.695 c-6.716-28.226-15.775-55.814-22.923-83.931c-6.571-25.844-14.234-51.413-20.617-77.3c-8.849-35.887-16.271-72.119-25.639-107.886 c-1.986-7.581-3.859-15.171-4.48-24.617c-0.746-3.276,1.731-5.745,5.96-7.531c15.945-6.736,32.313-12.248,48.714-17.738 c14.834-4.965,29.782-9.595,44.179-15.904c21.125-9.258,42.703-17.484,63.834-26.728c22.318-9.763,45.568-17.016,68.122-26.143 c15.913-6.44,32.238-11.866,48.427-17.612c5.997-2.128,9.036,0.394,8.779,6.755c-0.073,1.806-1.434,1.924-2.5,2.203 c-20.164,5.26-38.596,15.133-58.282,21.755c-22.259,7.488-43.881,16.755-65.386,26.291c-29.014,12.865-57.909,26.113-87.87,36.669 c-13.227,4.661-26.045,10.326-39.299,14.885c-5.176,1.78-10.029,4.391-14.468,7.788c-2.352,1.8-2.973,3.472-2.241,6.263 c4.075,15.548,8.08,31.115,11.983,46.707c5.077,20.279,7.707,41.052,12.296,61.436c3.47,15.411,6.427,30.938,9.988,46.326 c2.88,12.443,7.826,24.401,9.815,37.036c3.779,24.002,12.066,46.805,17.927,70.247c1.734,6.936,4.972,13.405,6.387,20.447 c0.283,1.411,1.291,2.265,2.562,3.027c3.315,1.99,6.731,3.653,10.414,4.893c50.55,17.024,100.826,34.84,150.066,55.37 c31.85,13.279,63.186,27.773,93.546,44.261c1.931,1.049,3.415,1.247,5.097-0.539c20.592-21.854,43.461-41.283,65.747-61.319 c12.766-11.477,26.172-22.24,39.226-33.399c13.37-11.43,26.572-23.058,40.013-34.403c15.111-12.753,30.422-25.268,45.619-37.919 c13.927-11.594,28.644-22.22,42.128-34.357c0.613-0.552,1.412-1.023,1.767-1.715c1.57-3.058,3.05-2.378,5.174-0.389 C596.723,318.993,596.87,319.014,591.929,323.726z" style="fill: rgb(107, 98, 94);"/></g><g id="__id17_ssn3zql6ro"><path d="M409.324,429.805c30.891-25.146,61.421-50.73,91.746-76.542c27.085-23.055,54.015-46.262,82.572-67.503 c3.384-2.517,3.401-4.364-0.326-6.369c-16.715-8.993-33.702-17.37-51.988-22.837c-15.812-4.727-31.773-8.507-48.096-11.242 c-35.908-6.015-71.752-8.522-107.832-1.956c-17.355,3.158-34.031,7.837-47.4,20.327c-3.213,3.002-6.552,5.902-10.054,8.558 c-23.338,17.7-46.991,34.995-70.036,53.066c-20.513,16.086-42.362,30.282-64.435,43.855c-22.293,13.709-44.398,27.999-68.817,39.795 c9.784,0.986,19.002,1.382,27.96,3.347c17.983,3.946,36.028,7.769,53.827,12.363c50.76,13.101,99.902,30.55,144.8,58.33 c2.132,1.319,3.533,1.311,5.414-0.285c5.444-4.622,11.092-9.004,16.534-13.627C378.586,456.01,393.665,442.552,409.324,429.805z M347.968,268.945c14.564-1.911,29-5.102,43.882-4.547c34.116-0.131,67.192,5.895,99.367,17.24 c5.701,2.01,11.527,3.665,17.243,5.637c4.193,1.447,8.04,3.602,11.308,6.653c1.364,1.274,2.579,2.894,1.142,4.67 c-1.447,1.788-3.267,0.986-4.732-0.229c-5.114-4.24-11.287-6.115-17.442-8.153c-14.875-4.926-29.636-10.193-45.049-13.315 c-22.411-4.539-44.874-8.43-67.9-6.996c-10.707,0.667-21.387,1.536-31.931,3.608c-2.237,0.44-4.382,0.346-6.46-0.583 c-0.978-0.437-1.374-1.276-1.346-2.343C346.084,269.311,346.912,269.084,347.968,268.945z M322.774,295.347 c32.212-4.461,63.512,1.338,94.721,8.34c22.035,4.943,43.749,10.832,64.165,20.757c2.606,1.267,5.151,2.666,7.04,4.938 c1.254,1.509,1.744,3.297,0.181,4.802c-1.472,1.416-2.79,0.212-3.933-0.813c-3.345-2.999-7.445-4.676-11.477-6.395 c-28.638-12.216-58.797-18.872-89.315-24.103c-12.719-2.18-25.463-4.444-39.151-4.029c-5.935-0.56-12.479,0.798-19.078,0.747 c-1.099-0.008-2.199-0.052-3.297-0.104c-1.619-0.076-3.322-0.552-3.326-2.352C319.299,294.893,321.375,295.541,322.774,295.347z M287.577,320.922c0.263-1.087,1.004-1.463,2.172-1.328c1.902,0.219,3.823,0.267,5.736,0.387c12.043,0.211,23.713,2.667,35.26,5.871 c21.174,5.875,42.82,9.947,63.784,16.625c12.057,3.841,23.72,8.734,35.423,13.5c4.466,1.819,8.244,4.925,11.837,8.156 c1.167,1.05,2.322,2.333,1.178,3.896c-1.218,1.664-2.966,1.214-4.424,0.226c-24.305-16.473-52.435-22.797-80.213-29.797 c-15.71-3.959-31.127-9.077-47.084-12.05c-5.533-1.031-11.081-1.967-16.726-2.237c-1.903-0.091-3.809-0.518-5.668-0.979 C287.821,322.939,287.314,322.004,287.577,320.922z M247.888,352.931c0.211-1.727,1.545-2.062,3.017-1.816 c36.188,0.409,70.414,9.179,103.449,23.49c14.754,6.392,29.839,12.017,44.757,18.033c2.157,0.87,4.306,1.832,6.292,3.029 c1.505,0.907,2.402,2.459,1.259,4.214c-1.043,1.603-2.543,1.158-4.043,0.527c-19.768-8.311-39.691-16.242-59.465-24.547 c-22.62-9.5-46.175-16.132-70.727-18.596c-6.558-0.658-13.138-1.1-19.707-1.652c-0.818-0.069-1.665-0.099-2.439-0.339 C249.117,354.914,247.688,354.562,247.888,352.931z M323.324,415.451c-22.605-8.66-45.205-17.274-69-22.134 c-12.668-2.588-25.57-3.52-38.443-4.511c-6.024-0.464-12.069-0.657-18.102-1.014c-0.948-0.056-1.909-0.25-2.818-0.53 c-0.988-0.304-2.451-0.411-2.145-1.934c0.251-1.249,1.571-0.873,2.44-0.884c4.676-0.057,9.353-0.027,14.03-0.027 c35.225-0.794,68.693,7.315,101.261,20.008c9.86,3.842,19.755,7.596,29.659,11.325c9.313,3.507,17.054,9.392,24.359,15.942 c1.445,1.295,3.09,2.854,1.243,4.86c-1.597,1.735-3.442,0.688-4.746-0.549C350.296,425.79,336.87,420.64,323.324,415.451z M254.876,168.958c-14.561,6.829-29.213,13.464-43.856,20.116c-7.819,3.552-13.442,8.804-14.855,17.733 c-0.406,2.565-1.369,5.036-1.964,7.577c-4.986,21.301-10.882,42.357-18.491,62.859c-6.505,17.53-14.008,34.691-22.321,51.447 c-12.411,25.018-25.091,49.907-42.877,71.731c-0.825,1.012-2.018,1.911-1.925,3.904c3.62-0.631,6.81-2.164,9.985-3.65 c13.384-6.261,24.949-15.648,37.975-22.447c24.231-12.648,46.749-28.081,68.759-43.965c40.237-29.039,80.02-58.742,118.202-90.55 c18.253-15.206,34.057-32.488,48.336-51.161c14.831-19.395,24.61-41.587,31.854-64.864c2.375-7.63,3.834-15.475,4.804-23.39 c0.565-4.61-0.171-5.1-4.637-4.341c-4.78,0.813-9.324,2.35-13.727,4.332c-10.906,4.909-21.595,10.318-32.832,14.464 C335.897,134.029,294.861,150.205,254.876,168.958z M182.004,347.227c-1.418,2.183-2.694,6.558-6.046,4.462 c-2.827-1.767,0.014-4.913,1.315-7.203c8.023-14.115,17.3-27.414,26.223-40.961c11.786-17.894,21.853-36.885,30.051-56.748 c2.727-6.607,3.564-13.807,5.103-20.776c0.288-1.304-0.607-3.577,1.827-3.32c2.019,0.213,1.476,2.295,1.617,3.723 c0.067,0.681,0.012,1.374,0.012,2.062c-0.62,13.473-5.072,25.858-11.275,37.601c-9.682,18.329-18.479,37.166-31.429,53.63 C192.683,328.239,187.919,338.123,182.004,347.227z M251.575,288.043c-2.542,3.216-4.658,6.816-6.633,10.424 c-4.463,8.153-10.648,15.007-16.396,22.189c-0.919,1.149-1.758,2.897-4.118,2.504c0.626-3.52,2.266-6.505,4.323-9.176 c9.413-12.225,16.513-25.948,25.253-38.635c11.518-16.722,18.505-35.836,25.786-54.692c1.003-2.598,1.122-5.357,1.048-8.13 c-0.058-2.198-0.044-4.402,0.049-6.599c0.046-1.091,0.304-2.452,1.484-2.669c1.599-0.294,2.045,1.306,2.308,2.401 c1.066,4.436,1.619,8.937,0.577,13.471c-2.669,11.615-8.165,22.152-12.828,32.984C266.927,264.896,260.262,277.055,251.575,288.043z M306.397,247.249c-5.353,8.311-10.567,16.713-15.939,25.011c-1.371,2.118-3.304,5.314-5.687,4.072 c-1.561-0.814,0.938-4.028,1.94-6.012c7.255-14.359,16.779-27.396,24.313-41.596c7.431-14.006,13.859-28.376,15.97-44.298 c0.192-1.451,0.527-3.013,2.277-2.832c2.755,0.286,1.909,2.862,2.467,4.423c-0.77,8.829-3.262,17.105-6.462,25.157 C320.243,223.846,313.778,235.789,306.397,247.249z M381.58,149.979c3.089,0.435,2.442,3.783,2.134,6.178 c-1.983,15.404-8.407,28.968-17.71,41.184c-4.595,6.035-8.779,12.267-12.601,18.819c-6.63,11.365-15.832,20.706-24.786,30.208 c-0.497,0.528-1.016,1.378-2.029,0.956c-0.729-0.926,0.089-1.57,0.454-2.222c1.072-1.915,2.02-3.956,3.397-5.636 c11.97-14.595,20.699-31.407,31.957-46.5c8.479-11.367,14.306-24.046,16.796-38.156C379.5,153.057,378.843,149.593,381.58,149.979z M304.146,58.782c16.213-8.185,33.837-13.094,50.188-21.028c6.429-3.119,13.027-5.89,19.568-8.773 c2.009-0.885,4.03-1.831,6.142-2.374c3.424-0.88,5.997-0.154,7.451,3.712c4.225,11.235,5.902,22.983,5.955,34.779 c0.054,12.068-0.002,24.194-1.285,36.258c-0.396,3.722-1.75,5.936-5.354,7.237c-6.202,2.238-12.287,4.816-18.362,7.39 c-2.746,1.163-3.425,0.571-3.332-2.436c0.348-11.257,0.917-22.553-1.795-33.649c-0.388-1.589-0.955-3.163-1.66-4.638 c-0.574-1.202-1.405-2.853-2.935-2.364c-1.635,0.523-1.098,2.246-0.833,3.602c0.423,2.157,0.901,4.306,1.219,6.479 c1.5,10.263,0.981,20.581,0.788,30.892c-0.071,3.811-1.439,6.074-5.461,7.384c-9.009,2.935-17.845,6.427-26.66,9.921 c-2.706,1.072-3.337,0.52-3.252-2.222c0.379-12.151-0.484-24.179-3.987-35.908c-0.45-1.506-0.319-3.799-2.682-3.312 c-2.105,0.434-1.786,2.625-1.576,4.176c0.829,6.123,1.971,12.205,2.734,18.334c0.834,6.698,0.468,13.456,0.615,20.189 c0.047,2.142-1.258,2.789-2.812,3.504c-10,4.602-20.272,8.523-30.551,12.441c-2.735,1.042-3.374,0.02-3.476-2.419 c-0.305-7.28-0.718-14.556-1.009-21.837c-0.189-4.721-1.249-9.254-2.771-13.685c-0.528-1.538-1.289-3.479-3.344-2.945 c-2.248,0.584-1.542,2.618-1.118,4.157c3.282,11.93,2.902,24.231,3.8,36.404c0.188,2.542-0.662,3.967-3.047,5.059 c-9.499,4.353-18.942,8.834-28.322,13.438c-2.961,1.454-3.344,0.619-3.248-2.292c0.377-11.432-0.19-22.823-2.571-34.046 c-0.479-2.256-0.674-5.938-3.805-5.331c-3.139,0.608-1.472,3.928-1.105,6.032c2.111,12.114,2.199,24.347,2.497,36.58 c0.057,2.353-0.893,3.445-2.901,4.294c-4.43,1.875-8.78,3.938-13.173,5.901c-7.419,3.316-14.73,6.81-21.102,11.983 c-0.781,0.634-1.688,1.796-2.847,1.059c-0.871-0.553-0.481-1.772-0.48-2.696c0.004-9.641-0.732-19.218-2.466-28.707 c-0.795-4.351-2.368-8.46-4.139-12.491c-0.62-1.411-1.538-3.055-3.302-2.353c-1.853,0.737-0.597,2.338-0.201,3.526 c3.865,11.609,4.157,23.694,5.429,35.722c1.38,13.052-3.69,24.532-6.47,36.532c-12.274,52.965-34.664,101.874-60.896,149.173 c-2.645,4.769-5.825,9.241-8.757,13.851c-0.342-0.152-0.683-0.303-1.025-0.455c2.445-8.697,5.596-17.186,7.746-25.975 c7.229-29.552,11.909-59.504,14.896-89.768c3.22-32.627,3.46-65.352,4.009-98.08c0.228-13.592-1.87-26.846-4.87-39.998 c-0.824-3.611-0.455-5.317,3.663-6.591c9.967-3.083,19.765-6.768,29.482-10.591c27.111-10.666,54.467-20.714,81.219-32.288 c4.913-2.126,9.94-4.058,15.049-5.648C280.259,69.957,292.324,64.751,304.146,58.782z M108.555,387.889 c-0.361,1.121-0.561,2.417-2.76,3.449c1.708-10.202,1.747-19.907,2.318-29.571c0.821-13.919-1.111-27.728-2.633-41.519 c-1.928-17.468-4.38-34.878-6.268-52.35c-1.17-10.822-3.988-21.342-5.358-32.099c-3.341-26.236-10.801-51.618-15.757-77.517 c-2.841-14.845-6.16-29.594-10.847-43.973c-1.277-3.917-0.004-5.39,3.475-6.427c15.938-4.752,31.228-11.357,46.567-17.615 c12.295-5.016,24.403-10.642,36.662-15.852c34.266-14.564,68.285-29.732,103.208-42.694c17.895-6.642,36.433-11.507,53.911-19.317 c3.347-1.496,5.351-0.817,7.292,2.52c4.458,7.663,7.306,15.985,10.745,24.07c0.977,2.296,0.051,2.998-1.974,3.857 c-31.356,13.309-63.062,25.756-94.61,38.589c-30.431,12.379-61.368,23.43-91.712,36.004c-7.764,3.217-8.349,3.632-6.747,11.777 c4.854,24.687,3.613,49.57,2.587,74.429c-0.516,12.504-0.372,25.017-1.258,37.521c-2.863,40.369-7.83,80.405-18.264,119.594 C114.695,369.92,111.459,378.861,108.555,387.889z M102.853,350.706c0.69,17.431-0.767,34.884-4.031,52.095 c-0.385,2.03-0.408,5.127-3.09,5.247c-2.668,0.119-2.102-2.937-2.598-4.707c-5.561-19.835-11.274-39.632-16.5-59.556 c-3.727-14.211-5.493-28.882-9.591-43.028c-10.415-35.947-16.93-72.746-24.018-109.427c-3.781-19.569-9.337-38.727-14.454-57.978 c-1.501-5.648-0.659-8.321,3.526-10.286c2.128-0.999,3.069-0.772,3.705,1.713c2.927,11.433,6.938,22.547,9.446,34.126 c4.589,21.192,10.224,42.171,13.711,63.584c2.676,16.436,7.662,32.34,10.573,48.686c2.359,13.245,4.203,26.596,7.316,39.686 c2.663,11.198,6.013,22.233,9.055,33.342c0.174,0.635,0.146,1.396,1.557,1.586c0.554-7.049-0.304-14.004-2.204-20.556 c-3.873-13.36-6.73-26.925-8.734-40.622c-2.314-15.814-6.496-31.171-9.89-46.725c-2.984-13.676-4.955-27.574-7.949-41.247 c-3.786-17.291-8.006-34.491-12.345-51.653c-1.746-6.906-4.115-13.675-6.566-20.373c-1.334-3.646-0.19-5.031,3.222-6.174 c6.373-2.133,6.539-2.343,7.203,4.118c1.54,15.002,5.982,29.322,10.106,43.698c3.873,13.501,6.414,27.263,8.859,41.05 c2.206,12.439,5.835,24.567,7.674,37.09c2.274,15.484,4.601,30.971,7.446,46.357c3.173,17.16,6.433,34.296,8.011,51.687 c0.893,9.842,0.969,19.757,2.706,29.525c0.232,1.304,0.075,2.725,1.543,3.448c1.142-0.627,0.935-1.697,0.914-2.599 c-0.411-17.998-0.365-36.032-3.394-53.86c-3.334-19.628-7.318-39.164-10.004-58.878c-2.47-18.134-6.937-35.844-9.946-53.834 c-3.567-21.325-9.141-42.128-14.963-62.882c-2.384-8.499-3.797-17.155-5.236-25.816c-0.779-4.69,3.787-3.876,6.115-5.002 c2.484-1.202,2.337,1.539,2.725,2.905c6.531,23.026,10.139,46.716,15.789,69.933c4.849,19.928,7.651,40.202,11.609,60.27 c3.567,18.083,5.816,36.325,8.048,54.57C100.253,316.992,102.185,333.839,102.853,350.706z M346.569,510.786 c-76.647-39.49-157.031-69.225-238.662-96.007c5.749-1.047,11.318,0.223,16.925,0.676c19.038,1.536,37.055,7.914,55.619,11.693 c47.203,9.609,91.736,26.778,134.98,47.612c7.333,3.533,14.063,8.094,21.043,12.223c3.849,2.277,6.568,5.589,8.022,11.268 c-4.65-2.447-8.374-4.196-11.89-6.294c-17.505-10.442-36.099-18.588-54.736-26.732c-11.077-4.84-22.115-9.73-33.319-14.287 c-12.112-4.926-24.611-8.57-36.987-12.652c-11.905-3.926-24.149-6.14-36.464-8.125c-1.491-0.241-2.985-0.425-5.129,0.365 c4.35,2.393,8.729,3.199,12.933,4.241c31.932,7.914,62.585,19.248,92.61,32.698c14.16,6.343,28.053,13.266,42.329,19.353 c10.239,4.366,19.156,11.313,29.683,15.238C346.94,503.328,345.134,507.764,346.569,510.786z M583.157,305.642 c1.159,2.764,0.395,4.377-1.357,5.923c-11.948,10.541-24.784,19.984-37.073,30.101c-15.15,12.474-30.355,24.885-45.341,37.553 c-17.2,14.54-34.102,29.431-51.286,43.991c-24.952,21.142-49.784,42.413-73.462,64.992c-6.368,6.072-12.7,12.183-19.148,18.169 c-2.884,2.678-3.408,2.409-4.231-1.44c-0.879-4.115-0.3-7.019,3.642-10.044c9.571-7.345,18.585-15.447,27.536-23.56 c8.144-7.381,17.196-13.606,25.268-21.129c13.353-12.445,27.428-24.127,41.39-35.904c15.118-12.752,30.519-25.168,45.678-37.873 c13.162-11.031,26.078-22.356,39.26-33.362c6.527-5.449,13.099-10.828,20.202-15.609c8.527-5.739,16.461-12.357,24.654-18.592 C580.19,307.867,581.499,306.891,583.157,305.642z M349.845,493.074c-1.173-1.817-2.554-4.874,0.601-7.307 c29.909-23.062,58.05-48.27,87.31-72.129c29.152-23.771,58.081-47.842,86.343-72.689c19.287-16.956,39.482-32.803,59.831-48.452 c0.606-0.466,1.051-1.316,2.308-1.027c-0.773,4.297-1.659,8.026-5.747,11.066c-18.068,13.436-36.533,26.404-53.359,41.421 c-15.898,14.189-32.75,27.22-49.062,40.902c-22.846,19.163-44.777,39.376-67.863,58.264c-18.268,14.947-36.746,29.685-53.758,46.113 c-0.79,0.763-1.552,1.685-2.515,2.107C352.503,491.971,351.199,495.17,349.845,493.074z" style="fill: rgb(227, 216, 214);"/></g></svg>