<svg xmlns="http://www.w3.org/2000/svg" xmlns:xlink="http://www.w3.org/1999/xlink" preserveAspectRatio="xMidYMid meet" version="1.0" viewBox="-1.0 -1.1 705.1 307.2" zoomAndPan="magnify" style="fill: rgb(0, 0, 0);" original_string_length="29519" width="456.6648751860609px" height="198.8597399746392px"><g id="__id20_ssn3zql6ro"><path d="M702.444,158.308c-1.477,4.81-4.931,8.06-8.807,10.927c-26.187,19.367-53.825,36.544-81.118,54.266 c-13.118,8.518-26.458,16.722-39.406,25.55c-12.862,8.768-25.945,17.536-40.172,24.067c-7.239,3.323-15.14,4.486-23.374,3.747 c-9.919-0.891-19.93-0.98-29.882-1.247c-17.56-0.472-34.935-2.295-52.159-5.364c-13.176-2.348-26.434-3.327-39.732-4.059 c-12.902-0.71-25.532-3.256-38.277-5.054c-18.506-2.611-37.075-4.776-55.583-7.375c-2.18-0.306-2.745,0.842-3.602,1.928 c-3.808,4.825-7.739,9.575-11.231,14.625c-6.873,9.936-16.479,17.364-24.025,26.698c-4.335,5.362-11.097,6.344-17.576,6.839 c-18.568,1.418-37.174,1.198-55.783,1.073c-10.135-0.068-20.295,1.11-30.408,0.74c-31.038-1.133-62.089-1.275-93.129-1.964 c-14.344-0.318-28.78-2.009-42.532-7.012c-3.262-1.187-5.531-3.084-7.019-6.154c-6.936-14.307-9.604-29.417-8.316-45.204 c0.286-3.513,1.655-6.934,3.716-9.804c3.939-5.487,7.743-11.17,12.365-16.051c25.482-26.91,49.837-54.846,74.937-82.081 c22.033-23.908,40.302-50.797,62.3-74.611c6.331-6.854,14.455-11.693,23.889-12.681c27.044-2.832,54.131-4.837,81.382-4.958 c19.809-0.088,39.52-3.442,59.369-3.459c15.688-0.014,31.38,0.421,47.063,0.892c3.476,0.104,6.956,1.056,10.374,1.871 c4.65,1.11,7.412,4.108,7.935,9.472c4.675-2.657,9.04-5.102,13.371-7.606c22.457-12.985,45.743-24.451,68.239-37.392 c8.56-4.924,18.917-6.209,28.821-6.927c43.004-3.119,86.094-1.681,129.145-1.602c14.398,0.027,28.891,0.604,43.262,2.343 c3.29,0.398,6.259,1.558,9.058,3.142c6.017,3.407,6.671,7.637,1.957,12.703c-2.297,2.469-2.607,5.627-2.884,8.567 c-0.693,7.336-1.634,14.668-1.409,22.079c0.129,4.265,1.763,8.057,3.108,11.962c0.556,1.615,1.371,2.029,3.118,1.272 c3.392-1.471,6.443-0.305,8.685,2.333c2.343,2.756,1.953,5.934,0.484,9.083c-4.031,8.641-11.961,12.941-19.577,17.538 c-3.871,2.336-8.194,3.918-12.474,7.279c10.686,0.752,20.345-1.435,30.02,0.108c10.088,1.609,12.172,6.769,6.775,15.431 c-4.655,7.47-8.115,15.498-6.089,24.734c1.251,5.705,3.793,8.038,9.577,8.826C701.681,148.462,704.091,152.949,702.444,158.308z" style="fill: rgb(30, 63, 72);"/></g><g id="__id21_ssn3zql6ro"><path d="M379.621,85.144c1.485,2.183,2.434,2.77,4.771,0.522c4.75-4.568,11.35-2.59,12.686,3.879 c0.654,3.169,2.19,3.567,4.664,3.672c7.985,0.339,15.974,0.633,23.952,1.108c9.051,0.539,18.099,1.17,27.131,1.959 c1.947,0.17,4.863,0.213,4.465,3.362c-0.369,2.919-3.019,2.056-4.858,1.978c-3.681-0.156-7.351-0.571-11.026-0.869 c-13.926-1.126-27.86-2.16-41.774-3.426c-4.052-0.369-3.327,3.085-4.033,4.877c-0.963,2.443,1.852,1.853,2.928,1.907 c7.692,0.386,15.246,1.663,22.793,3.073c1.998,0.373,4.605,0.56,4.297,3.084c-0.334,2.732-2.827,2.685-5.137,2.119 c-8.669-2.125-17.589-2.658-26.364-4.115c-1.74-0.289-2.897,0.072-3.709,1.783c-2.474,5.217-4.922,10.456-9.15,15.836 c3.956,0,7.017-0.358,9.97,0.056c24.654,3.458,49.283,6.942,74.245,7.574c12.817,0.324,24.725-1.419,34.855-10.017 c1.75-1.486,3.722-2.727,5.663-3.97c28.855-18.482,58.196-36.17,87.641-53.688c6.995-4.162,14.41-7.723,20.998-12.444 c17.524-12.559,35.846-23.79,54.582-34.397c2.471-1.399,6.458-2.658,6.055-5.556c-0.511-3.678-4.928-3.989-8.103-4.993 c-0.43-0.136-0.914-0.108-1.375-0.142c-24.09-1.769-48.2-3.063-72.365-2.465c-12.768,0.316-25.525,0.702-38.298,0.204 c-21.7-0.846-43.375,0.042-64.994,1.753c-7.245,0.573-14.883,1.114-21.322,4.993c-26.984,16.253-55.295,30.058-82.942,45.081 C376.007,63.24,374.883,78.18,379.621,85.144z M455.043,37.9c7.988-5.146,15.992-10.267,23.975-15.42 c4.695-3.03,9.879-4.542,15.341-3.579c12.664,2.233,25.436,2.081,38.138,1.553c24.752-1.029,49.453,0.286,74.175,0.665 c1.689,0.026,3.4,0.044,5.059,0.319c4.511,0.746,5.811,3.923,3.143,7.673c-1.643,2.309-4.076,3.696-6.503,5.027 c-11.826,6.485-23.692,12.899-35.472,19.465c-2.501,1.394-4.944,2.393-7.848,2.108c-4.692-0.682-9.368-1.506-14.078-2.018 c-13.32-1.448-26.712,0.227-40.059-0.884c-18.5-1.541-36.877-3.819-54.988-7.978c-1.882-0.432-4.5-0.497-4.759-2.844 C450.919,39.741,453.4,38.959,455.043,37.9z M667.267,76.72c4.15-2.566,7.878-5.806,11.908-8.58c1.325-0.912,3.04-1.986,4.585-0.363 c1.477,1.552,0.407,3.083-0.357,4.62c-2.76,5.553-7.784,8.837-12.853,11.526c-21.857,11.593-41.544,26.708-63.437,38.308 c-13.642,7.229-25.742,17.323-39.203,24.951c-20.026,11.347-39.605,23.446-59.652,34.742c-7.34,4.136-14.034,9.377-22.007,12.451 c-3.93,1.515-7.827,2.33-12.045,2.512c-25.965,1.122-51.451-2.685-76.937-6.903c-17.969-2.974-35.999-5.607-54.454-7.142 c1.806-4.674,3.742-7.059,9.575-6.709c19.808,1.19,39.443,3.777,59.066,6.378c21.097,2.796,42.224,3.807,63.463,3.293 c6.952-0.168,13.27-2.636,19.045-6.047c26.966-15.925,54.298-31.256,80.332-48.719c4.978-3.339,10.153-6.351,15.551-8.953 C616.879,109.052,641.82,92.45,667.267,76.72z M340.942,59.801c0.595-1.069,1.403-2.107,1.662-3.261 c1.812-8.077,6.861-10.192,14.667-9.11c5.579,0.773,11.311,0.621,16.849,1.916c2.053,0.48,4.568,0.894,3.992,2.846 c-0.495,5.679-2.798,9.197-5.768,12.039c-5.553,5.315-10.726,10.955-15.576,16.888c-1.727,2.112-3.023,2.217-5.284,0.717 c-2.943-1.952-5.931-3.791-8.408-6.337C338.163,70.45,337.553,65.892,340.942,59.801z M215.321,227.135 c8.138-0.596,16.217-0.416,25.15-0.887c-3.065,5.305-6.591,9.077-9.773,13.151c-8.636,11.054-20.596,13.165-33.375,13.552 c-3.982,0.121-7.97,0.019-12.531,0.019C192.038,240.58,198.52,228.365,215.321,227.135z M270.894,263.152 c1.306,3.382,1.311,6.48-1.294,9.387c-6.348,7.086-12.578,14.276-18.895,21.389c-3.021,3.401-7.384,3.699-11.389,4.182 c-10.983,1.324-22.051,1.278-33.104,1.244c-3.382-0.01-4.852-2.666-7.506-5.509c12.218-0.322,23.431,0.393,34.579-0.981 c4.278-0.527,7.591-1.806,10.914-5.345c7.596-8.09,14.127-16.947,21.01-25.567C268.176,258.235,269.136,258.6,270.894,263.152z M369.092,119.813c6.013-9.078,12.519-17.84,17.27-27.713c0.698-1.451,1.794-3.276,3.796-2.754c2.159,0.564,1.493,2.706,1.641,4.305 c0.221,1.91-0.171,3.809-1.117,5.344c-5.224,8.476-8.957,17.826-15.088,25.759c-0.863,1.117-1.614,3.771-3.581,1.589 C370.438,124.597,366.794,123.283,369.092,119.813z M265.63,137.392c0.717,0.719,1.719,0.687,2.581,0.275 c1.288-0.615,2.03-1.791,2.764-2.973c2.094-3.371,4.232-6.715,6.601-10.462c2.814,3.962,2.667,8.1,2.465,12.261 c-0.081,1.661-0.417,3.725,1.986,3.909c2.632,0.202,2.75-1.981,2.788-3.831c0.051-2.447,0.083-4.92-0.215-7.341 c-0.277-2.252,0.178-3.229,2.672-3.602c3.577-0.536,6.622-2.323,8.329-5.782c2.769-5.614-0.265-10.244-6.456-9.95 c-4.135,0.196-7.216,2.392-9.91,5.193c-5.693,5.921-9.183,13.323-13.363,20.258C265.473,136.008,264.964,136.724,265.63,137.392z M288.07,114.562c1.243-0.312,2.79-1.406,3.671,0.332c0.727,1.435,0.408,2.988-0.821,4.223c-3.01,3.023-6.624,3.342-11.398,2.454 C282.258,118.228,284.423,115.477,288.07,114.562z M195.967,132.693c2.779-5.433,5.401-10.961,8.497-16.209 c1.91-3.237,4.649-7.429,8.81-5.681c4.446,1.868,2.29,6.678,1.66,10.281c-0.49,2.804-1.59,5.501-2.419,8.245 c3.944-3.152,6.029-7.279,8.581-11.078c1.111-1.654,2.194-3.346,3.482-4.857c1.249-1.465,2.797-3.839,4.826-2.334 c2.368,1.757-0.048,3.46-1.229,4.901c-4.382,5.346-7.17,11.808-11.891,16.913c-0.729,0.788-1.383,1.649-2.15,2.396 c-1.264,1.231-2.757,2.211-4.524,1.268c-1.761-0.939-1.828-2.77-1.531-4.477c0.629-3.607,1.266-7.204,2.454-10.705 c0.669-1.971,1.753-4.005,0.8-6.455c-2.728,1.372-4.036,3.899-5.396,6.451c-2.301,4.318-4.705,8.582-7.127,12.834 c-0.619,1.088-1.616,2.219-2.953,1.561C194.096,134.878,195.472,133.661,195.967,132.693z M219.202,135.761 c4.659-7.157,8.338-14.979,14.286-21.259c0.83-0.876,1.865-1.597,2.903-2.227c1.253-0.759,2.716-0.898,3.919-0.033 c1.336,0.96,1.11,2.487,0.604,3.793c-1.71,4.413-3.556,8.774-5.259,13.19c-0.304,0.787-1.138,1.554-0.433,2.741 c3.958-3.951,6.561-8.814,9.718-13.265c1.497-2.111,3.124-4.142,4.834-6.085c0.735-0.835,1.92-1.13,2.895-0.266 c0.956,0.847,0.897,2.133,0.192,2.941c-5.655,6.476-9.186,14.545-15.475,20.542c-1.547,1.476-3.284,2.627-5.325,1.567 c-2.137-1.11-1.733-3.126-1.421-5.255c0.646-4.412,3.023-8.225,3.86-12.566c-5.514,5.692-8.306,13.425-15.333,18.915 C219.168,136.898,218.937,136.168,219.202,135.761z M127.764,131.697c1.173,0.905,2.404,0.515,3.264-0.536 c1.65-2.015,3.115-4.182,4.781-6.183c3.086-3.707,5.635-8.63,11.948-5.637c0.627,0.297,1.518,0.04,3.194,0.04 c0.473-0.035,1.912,0.078,3.221-0.281c3.519-0.963,6.749-2.541,7.608-6.509c0.604-2.787,0.489-5.799-2.352-7.378 c-3.404-1.892-6.899-1.047-9.971,1.034c-8.742,5.921-16.302,13.025-21.722,22.218C127.052,129.624,126.497,130.72,127.764,131.697z M153.879,109.371c1.046-0.424,2.549-0.933,3.231,0.501c0.668,1.406-0.02,2.659-1.33,3.491c-2.581,1.64-5.367,1.373-8.942,1.129 C149.314,112.108,151.366,110.389,153.879,109.371z M174.876,131.834c2.006,1.277,3.103-0.473,3.741-2.109 c1.974-5.058,5.149-7.178,10.534-4.275c-0.827,1.904-1.693,4.026-2.667,6.097c-0.698,1.486-1.346,3.112,0.468,4.001 c1.953,0.957,2.739-0.961,3.353-2.237c2.652-5.518,5.25-11.069,6.969-16.973c0.696-2.39,1.541-5.165-0.74-6.819 c-2.306-1.672-5.086-0.628-7.355,0.807c-1.539,0.974-2.921,2.252-4.209,3.556c-4.031,4.081-6.974,8.952-9.732,13.927 C174.555,129.045,173.033,130.661,174.876,131.834z M193.576,112.49c-1.128,8.009-1.355,8.213-8.271,7.427 C187.268,116.187,189.771,113.874,193.576,112.49z M247.033,133.377c3.052-7.377,7.542-13.946,12.001-20.51 c1.003-1.477,9.858-1.932,11.47-0.838c0.665,0.452,1.195,1.01,1.045,1.879c-0.141,0.815-0.698,1.436-1.472,1.574 c-1.656,0.294-3.464,0.926-4.989,0.542c-4.067-1.023-5.463,1.303-6.62,4.817c1.009,0.078,1.772,0.143,2.536,0.193 c1.375,0.091,2.426,0.628,2.471,2.153c0.055,1.849-1.448,1.644-2.611,1.783c-6.38,0.764-7.985,2.258-9.347,8.958 c2.014,0,3.979-0.028,5.944,0.011c1.064,0.021,2.252-0.021,2.212,1.593c-0.032,1.297-0.767,2.06-1.976,2.095 c-2.913,0.086-5.853,0.255-8.74-0.033C246.383,137.337,246.285,135.184,247.033,133.377z M155.342,128.019 c4.713-7.638,11.162-13.821,17.254-20.296c0.68-0.723,1.869-0.9,2.514-0.228c1.088,1.136,0.882,2.542-0.144,3.723 c-2.215,2.551-4.492,5.047-6.692,7.611c-2.399,2.796-4.747,5.636-7.103,8.469c-1.299,1.563-1.348,2.655,1.045,3.055 c1.031,0.172,2.055,0.627,2.98,1.138c1.065,0.588,2.293,1.333,1.887,2.807c-0.454,1.647-1.892,1.792-4.225,1.565 c-1.478-0.59-3.819-1.332-5.975-2.435C154.616,132.266,153.953,130.269,155.342,128.019z" style="fill: rgb(218, 169, 114);"/></g><g id="__id22_ssn3zql6ro"><path d="M190.957,293.603c-19.651-1.417-39.34-0.639-59.002-1.375c-24.589-0.92-49.219,0.339-73.81-1.013 c-12.088-0.665-24.201-1.115-35.857-4.912c-1.637-0.533-3.068-1.325-4.066-2.829c-5.534-8.338-6.743-17.633-5.932-27.318 c0.19-2.272,1.805-3.86,3.926-4.755c3.146-1.329,6.363-2.082,9.856-1.746c6.265,0.602,12.542,1.211,18.827,1.433 c16.591,0.586,33.201-0.079,49.792,1.165c26.685,2.001,53.409,2.942,80.176,1.832c2.757-0.114,4.497-1.078,5.874-3.502 c3.489-6.144,7.35-12.058,11.573-17.74c2.665-3.586,6.01-6.108,10.192-7.55c12.318-4.248,25.032-4.411,37.773-3.16 c2.522,0.248,4.054-0.001,5.488-1.874c8.211-10.725,16.966-21.081,24.521-32.25c9.993-14.775,20.9-28.875,31.767-42.939 c14.831-19.195,30.433-37.843,46.803-55.795c1.662-1.822,1.947-2.879-0.678-3.89c-2.897-1.116-5.297-3.085-7.606-5.126 c-7.688-6.797-8.983-14.045-4.226-23.015c1.625-3.065,3.069-6.226,4.847-9.856c-12.383-0.215-24.034-0.54-35.675,0.243 c-21.011,1.412-41.988,3.649-63.081,3.196c-19.723-0.424-39.255,2.52-58.919,2.969c-8.347,0.191-15.476,3.282-21.84,8.491 c-5.174,4.236-8.643,9.948-12.955,14.926c-14.788,17.078-27.615,35.764-42.846,52.487c-7.449,8.179-15.005,16.265-22.305,24.575 c-16.545,18.832-33.153,37.596-50.742,55.48c-8.505,8.648-16.386,17.898-23.696,27.598c-3.027,4.017-4.739,8.437-4.362,13.695 c0.829,11.594,3.814,22.631,7.721,33.508c1.872,5.212,5.657,7.916,10.707,9.033c11.408,2.523,23.05,4.651,34.631,4.519 c37.041-0.421,73.976,3.605,111.026,2.175c9.17-0.354,18.365-0.053,27.548-0.053C195.006,296.882,194.92,293.889,190.957,293.603z M289.144,109.896c6.191-0.294,9.226,4.336,6.456,9.95c-1.706,3.459-4.751,5.246-8.329,5.782c-2.494,0.373-2.949,1.35-2.672,3.602 c0.298,2.421,0.266,4.894,0.215,7.341c-0.039,1.85-0.156,4.033-2.788,3.831c-2.404-0.184-2.067-2.248-1.986-3.909 c0.202-4.161,0.349-8.299-2.465-12.261c-2.368,3.746-4.506,7.091-6.601,10.462c-0.734,1.182-1.476,2.358-2.764,2.973 c-0.863,0.412-1.865,0.444-2.581-0.275c-0.666-0.668-0.157-1.384,0.241-2.044c4.179-6.936,7.669-14.338,13.363-20.258 C281.927,112.288,285.009,110.093,289.144,109.896z M270.503,112.028c0.665,0.452,1.195,1.01,1.045,1.879 c-0.141,0.815-0.698,1.436-1.472,1.574c-1.656,0.294-3.464,0.926-4.989,0.542c-4.067-1.023-5.463,1.303-6.62,4.817 c1.009,0.078,1.772,0.143,2.536,0.193c1.375,0.091,2.426,0.628,2.471,2.153c0.055,1.849-1.448,1.644-2.611,1.783 c-6.38,0.764-7.985,2.258-9.347,8.958c2.014,0,3.979-0.028,5.944,0.011c1.064,0.021,2.252-0.021,2.212,1.593 c-0.032,1.297-0.767,2.06-1.976,2.095c-2.913,0.086-5.853,0.255-8.74-0.033c-2.572-0.257-2.67-2.41-1.922-4.217 c3.052-7.377,7.542-13.946,12.001-20.51C260.036,111.39,268.892,110.934,270.503,112.028z M236.392,112.275 c1.253-0.759,2.716-0.898,3.919-0.033c1.336,0.96,1.11,2.487,0.604,3.793c-1.71,4.413-3.556,8.774-5.259,13.19 c-0.304,0.787-1.138,1.554-0.433,2.741c3.958-3.951,6.561-8.814,9.718-13.265c1.497-2.111,3.124-4.142,4.834-6.085 c0.735-0.835,1.92-1.13,2.895-0.266c0.956,0.847,0.897,2.133,0.192,2.941c-5.655,6.476-9.186,14.545-15.475,20.542 c-1.547,1.476-3.284,2.627-5.325,1.567c-2.137-1.11-1.733-3.126-1.421-5.255c0.646-4.412,3.023-8.225,3.86-12.566 c-5.514,5.692-8.306,13.425-15.333,18.915c0-1.594-0.231-2.324,0.034-2.732c4.659-7.157,8.338-14.979,14.286-21.259 C234.319,113.625,235.353,112.905,236.392,112.275z M213.274,110.802c4.446,1.868,2.29,6.678,1.66,10.281 c-0.49,2.804-1.59,5.501-2.419,8.245c3.944-3.152,6.029-7.279,8.581-11.078c1.111-1.654,2.194-3.346,3.482-4.857 c1.249-1.465,2.797-3.839,4.826-2.334c2.368,1.757-0.048,3.46-1.229,4.901c-4.382,5.346-7.17,11.808-11.891,16.913 c-0.729,0.788-1.383,1.649-2.15,2.396c-1.264,1.231-2.757,2.211-4.524,1.268c-1.761-0.939-1.828-2.77-1.531-4.477 c0.629-3.607,1.266-7.204,2.454-10.705c0.669-1.971,1.753-4.005,0.8-6.455c-2.728,1.372-4.036,3.899-5.396,6.451 c-2.301,4.318-4.705,8.582-7.127,12.834c-0.619,1.088-1.616,2.219-2.953,1.561c-1.762-0.868-0.387-2.085,0.109-3.053 c2.779-5.433,5.401-10.961,8.497-16.209C206.374,113.246,209.113,109.054,213.274,110.802z M184.972,113.883 c1.288-1.304,2.67-2.582,4.209-3.556c2.269-1.435,5.049-2.479,7.355-0.807c2.281,1.654,1.436,4.429,0.74,6.819 c-1.719,5.904-4.317,11.455-6.969,16.973c-0.614,1.276-1.4,3.194-3.353,2.237c-1.814-0.889-1.166-2.516-0.468-4.001 c0.974-2.072,1.84-4.194,2.667-6.097c-5.386-2.903-8.561-0.783-10.534,4.275c-0.638,1.635-1.735,3.385-3.741,2.109 c-1.843-1.173-0.321-2.789,0.363-4.023C177.998,122.835,180.941,117.965,184.972,113.883z M175.109,107.495 c1.088,1.136,0.882,2.542-0.144,3.723c-2.215,2.551-4.492,5.047-6.692,7.611c-2.399,2.796-4.747,5.636-7.103,8.469 c-1.299,1.563-1.348,2.655,1.045,3.055c1.031,0.172,2.055,0.627,2.98,1.138c1.065,0.588,2.293,1.333,1.887,2.807 c-0.454,1.647-1.892,1.792-4.225,1.565c-1.478-0.59-3.819-1.332-5.975-2.435c-2.268-1.161-2.93-3.158-1.542-5.408 c4.713-7.638,11.162-13.821,17.254-20.296C173.275,107,174.465,106.822,175.109,107.495z M127.735,128.465 c5.421-9.193,12.981-16.297,21.722-22.218c3.072-2.081,6.567-2.926,9.971-1.034c2.841,1.579,2.955,4.59,2.352,7.378 c-0.859,3.968-4.089,5.546-7.608,6.509c-1.309,0.358-2.748,0.246-3.221,0.281c-1.676,0-2.567,0.258-3.194-0.04 c-6.313-2.993-8.862,1.93-11.948,5.637c-1.666,2.001-3.13,4.169-4.781,6.183c-0.86,1.05-2.091,1.44-3.264,0.536 C126.497,130.72,127.052,129.624,127.735,128.465z M322.961,199.002c-14.272,20.569-29.034,40.798-43.618,61.15 c-0.793,1.107-1.686,2.142-2.671,3.386c-0.631-0.81-0.825-1.043-1.001-1.288c-4.67-6.533-1.731-11.682,2.514-17.145 c10.938-14.076,21.728-28.278,32.174-42.722c11.065-15.3,21.661-30.938,32.466-46.426c6.33-9.074,12.661-18.147,19.006-27.21 c1.566-2.236,2.682-4.205,5.386-0.5c3.682,5.045,3.991,4.988-0.435,9.974c-4.488,5.056-7.142,11.348-11.446,16.628 c-6.483,7.954-12.093,16.625-17.979,25.057C332.791,186.445,327.523,192.427,322.961,199.002z M279.521,121.571 c2.737-3.342,4.902-6.093,8.549-7.009c1.243-0.312,2.79-1.406,3.671,0.332c0.727,1.435,0.408,2.988-0.821,4.223 C287.91,122.14,284.295,122.458,279.521,121.571z M146.838,114.492c2.476-2.384,4.528-4.102,7.041-5.121 c1.046-0.424,2.549-0.933,3.231,0.501c0.668,1.406-0.02,2.659-1.33,3.491C153.199,115.003,150.414,114.736,146.838,114.492z M185.305,119.917c1.963-3.73,4.466-6.043,8.271-7.427C192.448,120.499,192.221,120.703,185.305,119.917z" style="fill: rgb(107, 98, 94);"/></g><g id="__id23_ssn3zql6ro"><path d="M185,259.375c10.547-0.856,21.145-1.112,31.8-3.381c0.145,2.25,0.007,4.282,0.456,6.173 c0.761,3.204-0.068,4.437-3.472,3.893c-10.731-1.716-21.492-0.702-32.211,0.061c-18.617,1.325-37.182,0.34-55.752-0.749 c-9.248-0.542-18.434,0.878-27.669,0.62c-21.663-0.604-43.32-1.316-64.952-2.671c-2.266-0.142-4.548-0.019-7.5-0.019 c2.448,4.075,6.252,4.124,9.361,4.441c26.946,2.747,53.963,3.196,81.043,2.628c13.66-0.286,27.346,0.936,41.026,1.268 c19.528,0.474,39.012-2.006,58.556-0.965c2.895,0.154,6.748,3.684,6.84,6.447c0.056,1.677-1.326,1.576-2.24,1.609 c-3.84,0.137-7.724,0.476-11.522,0.075c-19.619-2.07-39.311-1.099-58.965-1.587c-21.193-0.526-42.44,0.049-63.581-1.224 c-17.006-1.024-34.099-1.001-51.038-3.246c-3.221-0.427-6.548-0.061-9.885,0.405c4.215,3.886,9.562,4.185,14.673,4.872 c14.493,1.949,29.162,1.275,43.702,2.686c3.356,0.326,6.72,0.088,10.106-0.438c5.188-0.805,10.416-0.383,15.589,0.56 c12.982,2.365,26.039-0.217,39.105,0.7c20.996,1.473,42.112,0.59,63.141,1.931c3.575,0.228,7.15,0.073,10.528-0.838 c4.5-1.213,7.529,0.912,10.637,3.302c-0.05,0.499-0.101,0.999-0.151,1.498c-4.243,0-8.486,0.028-12.728-0.004 c-52.61-0.404-105.211-1.652-157.829-1.291c-9.649,0.066-19.416-0.368-28.928-1.853c-9.773-1.526-11.252-2.531-13.569-11.644 c-0.984-3.868-1.757-7.739-2.023-11.771c-0.276-4.195,1.794-5.651,5.317-5.589c4.596,0.08,9.217,0.329,13.77,0.933 c9.202,1.222,18.432,0.801,27.652,0.828c22.92,0.069,45.709,2.823,68.609,3.265C150.275,260.639,167.642,260.785,185,259.375z M682.9,148.106c-10.106,9.048-21.944,15.716-32.857,23.661c-8.437,6.143-17.213,11.756-26.499,16.613 c-24.777,12.96-48.185,28.155-71.164,44.047c-5.283,3.654-11.029,6.639-16.557,9.94c-1.147,0.685-2.43,1.127-3.211-0.238 c-0.696-1.217,0.767-1.774,1.382-2.543c0.377-0.471,0.884-0.864,1.394-1.198c19.11-12.528,37.438-26.31,57.264-37.668 c28.9-16.556,57.32-33.785,84.524-53.037c4.697-3.324,6.026-6.436,3.637-11.719c-0.613,0.443-1.198,0.853-1.77,1.28 c-11.066,8.262-21.808,16.995-33.482,24.391c-35.529,22.507-71.541,44.231-107.772,65.588c-1.761,1.038-4.3,3.819-5.771,1.812 c-1.198-1.635,2.057-3.63,3.711-4.901c8.895-6.838,18.598-12.485,28.22-18.197c37.608-22.327,74.818-45.261,110.708-70.298 c4.758-3.32,8.432-6.828,8.645-13.721c-7.405,4.918-14.589,9.619-21.702,14.428c-15.516,10.49-31.344,20.457-47.534,29.894 c-11.115,6.479-22.163,13.107-32.589,20.755c-13.48,9.888-27.431,19.103-42.496,26.512c-3.268,1.607-6.882,2.795-9.488,5.497 c-7.108,7.37-10.401,16.111-9.288,26.423c0.737,6.826,3.77,8.798,9.866,5.549c9.338-4.979,19.046-9.574,27.521-15.797 c18.118-13.305,37.733-24.183,56.909-35.664c24.55-14.698,48.099-30.661,70.663-48.172c0.831-0.645,2.487-1.003,0.96-2.653 C685.117,147.602,684.535,146.642,682.9,148.106z M481.126,164.505c6.39-3.706,12.876-7.127,19.012-11.088 c19.972-12.895,41.03-23.953,61.759-35.465c24.443-13.576,47.28-29.637,71.489-43.517c10.749-6.163,21.561-12.356,31.318-20.116 c1.235-0.983,3.13-1.391,3.049-3.64c-0.121-3.335-0.031-6.678-0.031-10.206c-0.657,0.201-1.097,0.266-1.47,0.459 c-8.104,4.212-14.418,10.918-21.962,15.874c-24.215,15.907-49.432,30.153-74.691,44.305c-15.498,8.683-30.593,18.059-45.85,27.126 c-12.851,7.637-25.609,15.59-37.983,24.08C479.584,156.557,479.2,156.613,481.126,164.505z M665.676,59.093 c-4.618,3.56-9.112,7.434-14.178,10.235c-23.376,12.922-45.173,28.396-68.212,41.864c-7.681,4.491-15.729,8.287-23.294,12.927 c-23.912,14.663-48.884,27.468-72.968,41.828c-5.399,3.22-5.267,2.98-3.144,8.845c1.304,3.604,2.959,4.105,5.968,2.106 c15.986-10.625,33.258-19.184,49.192-29.82c33.484-22.35,69.848-39.702,103.977-60.898c8.733-5.423,17.477-10.827,26.179-16.3 c1.38-0.868,2.929-1.736,3.23-3.522c-0.844-2.106-1.862-4.037-2.387-6.094C669.204,56.997,667.9,57.378,665.676,59.093z M243.335,279.516c9.048-9.301,16.282-20.042,24.234-30.15c22.508-28.61,43.83-58.137,64.45-88.154 c4.524-6.586,9.158-13.098,13.652-19.704c10.367-15.24,22.552-29.177,32.157-44.969c1.61-2.647,2.13-4.576-1.377-5.785 c-2.667,3.743-5.136,7.647-8.037,11.198c-13.294,16.275-26.685,32.465-38.407,49.951c-9.674,14.43-21.268,27.408-31.591,41.318 c-12.421,16.738-23.587,34.413-37.183,50.288c-9.768,11.406-16.708,25.086-28.481,35.044c0.729,0.611,1.36,1.05,1.884,1.593 C237.815,283.434,240.076,282.866,243.335,279.516z M665.598,27.201c-16.596,10.002-32.436,21.144-48.566,31.856 c-18.931,12.571-39.212,22.982-58.423,35.195c-20.48,13.02-41.845,24.647-61.52,38.96c-1.843,1.341-4.013,3.055-6.077,3.12 c-6.901,0.216-8.007,5.24-9.396,10.197c-0.404,1.442-0.597,2.942-1.027,5.126c7.756-3.914,13.559-9.468,20.28-13.709 c15.158-9.566,30.885-18.186,45.983-27.821c20.298-12.954,41.339-24.633,62.026-36.919c12.914-7.67,26.405-14.381,38.094-24.018 c4.493-3.704,9.163-7.253,14.41-9.885c7.921-3.974,8.422-4.805,7.815-14.248C667.921,25.815,666.756,26.503,665.598,27.201z M363.164,82.858c-29.425,32.427-59.123,64.625-83.196,101.453c-3.943,6.033-7.694,12.195-12.247,17.848 c-7.894,9.801-15.812,19.617-23.07,29.885c-4.953,7.008-10.66,13.073-17.275,18.403c-5.418,4.366-6.11,7.375-2.936,14.27 c11.408-13.54,22.733-26.859,33.921-40.292c14.241-17.098,25.407-36.565,40.64-52.913c1.343-1.442,2.277-3.261,3.427-4.887 c6.108-8.636,12.11-17.35,18.365-25.878c7.454-10.164,15.701-19.702,23.702-29.435c8.759-10.654,17.158-21.604,25.791-32.363 c1.317-1.642,2.384-3.162,1.576-5.573C368.211,75.936,366.018,79.712,363.164,82.858z M351.438,170.749 c13.211,0.784,26.069,1.696,38.857,3.335c19.017,2.437,37.989,5.39,57.179,6.01c11.098,0.359,22.234,0.633,33.204-0.313 c-1.726-8.652-6.835-11.997-15.146-10.839c-1.468,0.205-3.042-0.257-4.556-0.485c-17.621-2.658-35.453-2.408-53.175-3.447 c-12.334-0.723-24.717-0.839-37.019-2.236C360.442,161.6,355.22,163.618,351.438,170.749z M370.281,85.948 c-5.519,7.954-11.755,15.312-17.895,22.791c-14.606,17.79-28.84,35.909-42.61,54.353c-6.232,8.347-13.156,16.156-18.774,25.013 c-9.545,15.049-20.51,29.143-31.874,42.826c-10.488,12.628-20.506,25.732-32.519,37.035c-1.45,1.364-0.848,2.432-0.163,3.623 c0.81,1.408,1.143,3.218,3.034,3.905c2.833-1.89,5.498-4.057,7.458-6.776c9.074-12.583,18.404-24.945,28.422-36.812 c13.342-15.804,24.71-33.122,37.222-49.572c17.915-23.555,35.341-47.481,53.049-71.193c5.692-7.622,11.548-15.125,17.492-22.552 c1.335-1.668,0.878-3.03-0.187-4.006C371.527,83.29,370.837,85.146,370.281,85.948z M462.183,150.528 c4.093,0.549,9.01,2.156,12.167,0.555c3.437-1.744,2.325-7.678,4.299-11.404c0.063-0.119,0.008-0.301,0.008-1.042 c-1.03,0-1.94-0.057-2.841,0.008c-20.806,1.503-41.381-0.86-61.961-3.491c-10.49-1.341-20.893-3.424-31.51-3.776 c-2.674-0.089-4.926,0.626-6.368,2.773c-1.815,2.704-3.279,5.643-5.02,8.702c7.449-0.06,14.208,1.533,21.034,2.041 C415.399,146.638,438.881,147.4,462.183,150.528z M366.676,148.845c-1.91,2.93-4.005,5.739-6.662,9.499 c6.756-0.847,12.521,0.333,18.323,0.533c11.352,0.392,22.706,0.865,34.057,1.229c19.146,0.613,38.388,1.111,57.279,4.582 c6.167,1.133,5.971-1.156,5.222-5.444c-0.317-1.813,0.689-4.173-2.731-3.988c-8.332,0.451-16.52-1.28-24.786-1.864 c-15.629-1.104-31.24-2.657-46.887-3.232c-10.282-0.378-20.31-3.414-30.679-2.462C368.567,147.812,367.531,147.534,366.676,148.845z M535.449,48.021c9.062-0.288,18.083,0.007,26.901,2.602c2.697,0.794,5.258,0.193,7.879-1.293 c11.995-6.803,24.138-13.342,36.204-20.02c1.337-0.74,3.093-1.176,3.553-3.301c-5.204,0-10.119,0.066-15.033-0.011 c-20.575-0.324-41.13-1.201-61.733-0.146c-12.695,0.65-25.481,0.705-38.147-1.548c-4.053-0.721-8.347-0.605-12.07,1.728 c-7.628,4.781-15.188,9.669-22.962,14.631c0.663,0.31,1.178,0.704,1.74,0.791C486.193,45.252,510.622,48.81,535.449,48.021z" style="fill: rgb(229, 218, 216);"/></g><g id="__id24_ssn3zql6ro"><path d="M693.705,152.087c-2.82,0.824-5.592,1.711-7.757,3.781c-24.117,23.051-52.917,39.399-81.551,55.724 c-12.854,7.328-24.648,16.045-37,23.991c-11.644,7.49-23.474,14.545-35.845,20.689c-7.729,3.838-14.182,0.822-16.142-7.486 c-2.033-8.618-1.111-17.009,3.813-25.262c-5.233,0-9.965,0.297-14.649-0.05c-22.946-1.698-45.906-3.292-68.805-5.504 c-10.073-0.973-20.173-1.461-30.236-2.478c-12.331-1.247-24.673-2.257-36.984-3.844c-13.812-1.781-27.612-3.935-41.572-4.589 c-2.178-0.102-3.094,0.738-4.063,2.109c-2.659,3.761-5.124,7.671-7.965,11.286c-1.341,1.706-1.579,2.975-0.55,4.857 c2.281,4.167,4.4,8.424,6.524,12.675c0.773,1.549,1.484,3.336-0.708,4.294c-1.858,0.813-2.732-0.624-3.507-2.055 c-2.193-4.047-4.429-8.07-6.902-12.565c-5.698,6.7-9.369,14.365-14.385,21.444c6.049,0.799,11.349,1.836,16.69,2.141 c15.333,0.874,30.497,3.267,45.575,5.79c13.358,2.236,26.745,3.48,40.187,4.648c10.538,0.915,21.1,1.752,31.569,3.217 c18.254,2.555,36.553,4.137,54.969,5.034c8.739,0.426,17.54,0.038,26.217,1.167c6.297,0.819,12.121,0.058,17.943-2.397 c14.945-6.302,27.804-16.183,41.672-24.311c8.574-5.025,16.993-10.434,25.375-15.82c10.576-6.796,21.878-12.414,31.978-19.969 c5.161-3.861,10.369-7.652,15.702-11.295c16.226-11.085,32.897-21.519,48.717-33.199c2.526-1.865,4.577-4.107,5.846-6.981 c0.636-1.439,0.928-3.055-0.311-4.305C696.525,151.788,695.21,151.647,693.705,152.087z M343.181,240.643 c-0.337,2.471-2.76,2.451-6.111,2.227c-3.682-0.543-7.787-2.595-10.051-7.301c-1.911-3.972-0.291-7.489,2.036-10.625 c2.229-3.003,6.967-3.281,9.284-0.778c1.086,1.173,1.857,2.483,0.492,4.011c-1.42,1.589-1.987,0.038-2.799-0.729 c-1.144-1.081-2.402-1.532-3.515-0.044c-1.628,2.176-2.721,4.475-0.755,7.073c1.805,2.384,4.485,2.988,7.177,3.641 C340.612,238.525,343.628,237.371,343.181,240.643z M364.731,246.508c-0.649,0.377-1.413,0.665-2.154,0.757 c-7.524,0.926-15.998-7.434-15.155-14.955c0.325-2.896,1.428-5.477,4.414-6.406c2.836-0.882,5.372,0.446,7.659,2.018 c1.051,0.722,1.697,1.992,0.97,3.202c-0.868,1.442-2.064,0.798-3.123,0.018c-1.578-1.163-3.619-2.037-5.007-0.564 c-1.531,1.626-1.21,3.975-0.125,6.04c1.746,3.326,6.85,5.952,11.22,5.732c1.342-0.519,2.565-0.342,2.942,1.155 C366.704,244.821,365.848,245.86,364.731,246.508z M386.271,247.877c-2.54,1.919-7.748,1.36-10.723-1.151 c-4.637-3.915-5.386-12.513-1.526-17.211c1.366-1.663,3.048-2.528,4.878-2.346c4.663,0.028,8.518,3.278,10.216,8.323 C390.419,239.363,388.924,245.872,386.271,247.877z M408.379,248.238c-3.405,1.863-9.24-0.686-12.536-4.705 c-2.859-3.486-2.34-7.464-2.135-11.427c0.047-0.907,0.589-1.851,1.667-1.889c1.331-0.047,1.792,0.924,1.957,2.099 c0.214,1.522,0.591,3.032,0.671,4.559c0.144,2.746,1.657,4.562,3.79,5.973c3.809,2.521,5.509,1.632,5.766-2.976 c0.051-0.918,0.007-1.841,0.007-3.25c0.615-1.182-1.81-4.108,1.08-4.549c3.395-0.518,3.691,2.739,3.723,5.151 C412.423,241.335,412.748,245.847,408.379,248.238z M438.652,236.016c-1.028,4.511-0.203,9.228-1.642,13.683 c-0.536,1.661-1.088,3.288-3.091,3.574c-2.065,0.295-2.798-1.326-3.845-2.694c-3.003-3.923-3.786-9-7.128-13.601 c-1.24,4.023,0.138,7.217-0.355,10.327c-0.229,1.442,0.559,4.036-1.881,4.038c-2.203,0.002-2.044-2.325-2.116-3.962 c-0.142-3.226-0.183-6.457-0.215-9.686c-0.021-2.131-0.348-4.368,2.562-5.174c2.558-0.708,4.499,0.12,6.212,1.9 c1.642,1.706,2.385,3.905,3.261,6.03c0.667,1.618,1.351,3.229,2.516,6.012c0.627-4.476,0.086-7.686,1.05-10.764 c0.466-1.488,0.981-2.683,2.713-2.38C438.058,233.557,438.957,234.676,438.652,236.016z M460.704,239.486 c-4.45-0.725-5.482,1.012-4.379,5.117c0.827,3.079,1.146,6.293,1.704,9.445c0.287,1.623,0.307,3.223-1.702,3.622 c-1.689,0.336-2.421-0.856-2.818-2.336c-1.032-3.848-1.751-7.773-1.76-11.737c-0.006-2.996-0.778-4.576-4.09-4.335 c-1.818,0.132-4.177-0.058-4.053-2.518c0.113-2.226,2.385-1.863,4.026-1.887c1.99-0.029,3.981-0.007,5.971-0.007 c0,0.009,0,0.018,0,0.027c2.447,0,4.908-0.159,7.334,0.063c1.322,0.121,2.802,0.762,2.753,2.535 C463.637,239.398,462.018,239.7,460.704,239.486z M484.138,257.835c-6.952,2.291-11.222,2.326-14.683-2.12 c-0.674-0.865-1.593-1.854-1.008-2.857c0.813-1.394,1.874-0.127,2.738,0.255c3.549,1.568,7.073,1.13,11.978-0.008 c-3.906-1.534-6.655-2.427-9.235-3.67c-3.954-1.904-5.39-5.212-4.659-9.507c0.464-2.73,2.151-4.474,4.719-5.043 c2.844-0.631,5.46,0.254,7.577,2.309c0.725,0.703,0.908,1.695,0.303,2.516c-0.683,0.926-1.626,1.192-2.825,0.687 c-2.026-0.854-4.546-2.639-5.521,0.996c-0.841,3.136,1.888,4.188,4.103,5.169c2.222,0.984,4.6,1.611,6.845,2.548 c2.043,0.853,3.08,2.66,3.021,4.751C487.435,255.86,486.012,257.217,484.138,257.835z M652.604,103.415 c8.445,0.348,16.915,0.114,25.375,0.112c1.846-0.001,3.696-0.049,5.537,0.052c2.602,0.143,6.157,0.102,6.932,2.508 c0.945,2.931-1.799,5.363-4.278,7.007c-11.258,7.465-22.505,14.951-33.901,22.2c-10.876,6.918-21.397,14.385-32.623,20.772 c-4.392,2.499-8.571,5.373-13.139,7.6c-10.985,5.354-20.141,13.388-30.034,20.369c-13.766,9.712-27.918,18.917-42.899,26.734 c-0.813,0.424-1.747,0.74-2.385,1.354c-8.514,8.194-18.689,7.603-29.274,5.96c-10.618-1.647-21.415-1.454-32.11-2.643 c-16.167-1.797-32.41-2.92-48.633-4.179c-10.548-0.819-21.162-0.969-31.666-2.135c-15.677-1.739-31.273-4.194-46.927-6.159 c-4.524-0.568-9.128-0.502-14.098-0.747c2.78-5.066,5.813-9.569,9.678-13.54c1.439-1.478,3.083-1.296,4.704-1.09 c10.494,1.339,20.972,2.802,31.464,4.162c26.002,3.37,51.679,9.2,77.992,10.215c10.159,0.392,20.332,0.254,30.417-0.73 c5.596-0.546,10.858-3.111,15.655-6.276c21.271-14.033,43.526-26.427,65.47-39.341c11.898-7.002,23.732-14.156,35.189-21.848 c8.317-5.584,17.045-10.394,25.75-15.244c7.257-4.043,14.523-8.009,21.087-13.127C647.908,103.823,649.899,103.303,652.604,103.415z M385.088,239.119c-0.969,1.665,0.1,5.23-3.775,4.856c-4.171-0.402-4.946-3.654-5.056-6.992c-0.08-2.444,0.238-5.129,3.243-5.828 C381.223,230.754,385.096,236.316,385.088,239.119z" style="fill: rgb(217, 182, 177);"/></g></svg>